<svg width="42" height="38" viewBox="0 0 42 38" fill="none" xmlns="http://www.w3.org/2000/svg">
<g clip-path="url(#clip0)" filter="url(#filter0_d)">
<path d="M32.8832 0.834259H18.903C17.6057 0.835628 16.3619 1.34445 15.4446 2.24909C14.5272 3.15372 14.0113 4.38028 14.0099 5.65963V14.621H27.4108L22.8078 10.0809C22.5567 9.82021 22.4188 9.47313 22.4235 9.11363C22.4281 8.75412 22.575 8.41064 22.8328 8.15641C23.0906 7.90218 23.4389 7.75732 23.8035 7.75271C24.168 7.74811 24.52 7.88413 24.7843 8.13177L31.7744 15.0251C32.0364 15.2837 32.1836 15.6342 32.1836 15.9997C32.1836 16.3652 32.0364 16.7157 31.7744 16.9743L24.7843 23.8676C24.52 24.1153 24.168 24.2513 23.8035 24.2467C23.4389 24.2421 23.0906 24.0972 22.8328 23.843C22.575 23.5888 22.4281 23.2453 22.4235 22.8858C22.4188 22.5263 22.5567 22.1792 22.8078 21.9185L27.4108 17.3784H14.0099V26.3398C14.0099 29.1014 16.9623 31.1651 19.602 31.1651H32.8832C34.1805 31.1638 35.4243 30.6549 36.3417 29.7503C37.259 28.8457 37.775 27.6191 37.7763 26.3398V5.65963C37.775 4.38028 37.259 3.15372 36.3417 2.24909C35.4243 1.34445 34.1805 0.835628 32.8832 0.834259Z" fill="white"/>
<path d="M5.62172 14.6213C5.25094 14.6213 4.89535 14.7666 4.63317 15.0251C4.37099 15.2837 4.22369 15.6344 4.22369 16C4.22369 16.3656 4.37099 16.7163 4.63317 16.9749C4.89535 17.2334 5.25094 17.3787 5.62172 17.3787H14.0099V14.6213H5.62172Z" fill="white"/>
</g>
<defs>
<filter id="filter0_d" x="0" y="0" width="42" height="38" filterUnits="userSpaceOnUse" color-interpolation-filters="sRGB">
<feFlood flood-opacity="0" result="BackgroundImageFix"/>
<feColorMatrix in="SourceAlpha" type="matrix" values="0 0 0 0 0 0 0 0 0 0 0 0 0 0 0 0 0 0 127 0"/>
<feOffset dy="3"/>
<feGaussianBlur stdDeviation="2"/>
<feColorMatrix type="matrix" values="0 0 0 0 0 0 0 0 0 0 0 0 0 0 0 0 0 0 0.25 0"/>
<feBlend mode="normal" in2="BackgroundImageFix" result="effect1_dropShadow"/>
<feBlend mode="normal" in="SourceGraphic" in2="effect1_dropShadow" result="shape"/>
</filter>
<clipPath id="clip0">
<rect width="34" height="30" fill="white" transform="translate(4 1)"/>
</clipPath>
</defs>
</svg>
