<svg width="261" height="201" viewBox="0 0 261 201" fill="none" xmlns="http://www.w3.org/2000/svg">
<g opacity="0.85">
<path d="M241.513 187.177L239.363 170.873" stroke="#263238" stroke-width="0.985332" stroke-linecap="round" stroke-linejoin="round"/>
<path d="M239.352 171.331C239.352 171.331 235.49 168.903 235.49 163.352C235.49 157.8 240.641 153.294 240.641 153.294C240.641 153.294 246.225 158.846 244.936 164.393C243.647 169.94 239.352 171.331 239.352 171.331Z" fill="#D56B6B" stroke="#263238" stroke-width="0.985332" stroke-linecap="round" stroke-linejoin="round"/>
<path d="M239.363 170.873L240.346 158.621" stroke="#263238" stroke-width="0.985332" stroke-linecap="round" stroke-linejoin="round"/>
<path d="M243.497 185.975C245.371 182.072 247.66 178.308 250.337 174.724" stroke="#263238" stroke-width="0.985332" stroke-linecap="round" stroke-linejoin="round"/>
<path d="M248.314 177.672C248.314 177.672 246.169 174.113 249.203 169.145C252.237 164.177 259.328 161.965 259.328 161.965C259.328 161.965 261.3 168.934 257.105 173.454C252.91 177.973 248.314 177.672 248.314 177.672Z" fill="#D56B6B" stroke="#263238" stroke-width="0.985332" stroke-linecap="round" stroke-linejoin="round"/>
<path d="M248.314 177.672L256.133 167.292" stroke="#263238" stroke-width="0.985332" stroke-linecap="round" stroke-linejoin="round"/>
<path d="M238.029 187.429C236.864 184.294 235.28 181.271 233.306 178.413L230.3 174.23" stroke="#263238" stroke-width="0.985332" stroke-linecap="round" stroke-linejoin="round"/>
<path d="M232.717 177.466C230.345 178.054 227.827 178.148 225.398 177.738C222.969 177.329 220.708 176.429 218.825 175.123C212.157 170.599 212.529 161.368 212.529 161.368C212.529 161.368 225.454 159.878 230.672 165.793C232.185 167.449 233.163 169.383 233.52 171.421C233.877 173.458 233.601 175.536 232.717 177.466Z" fill="#D56B6B" stroke="#263238" stroke-width="0.985332" stroke-linecap="round" stroke-linejoin="round"/>
<path d="M232.717 177.466L217.397 164.572" stroke="#263238" stroke-width="0.985332" stroke-linecap="round" stroke-linejoin="round"/>
<path d="M248.581 183.686H232.228V196.638H248.581V183.686Z" fill="#24295C" stroke="#24295C" stroke-width="0.985332" stroke-linecap="round" stroke-linejoin="round"/>
<path d="M221.259 1H111.871V75.4306H221.259V1Z" fill="white" stroke="#24295C" stroke-width="0.985332" stroke-linecap="round" stroke-linejoin="round"/>
<path d="M134.575 45.1522H133.686L133.536 44.3354H132.458L132.302 45.1522H131.497L132.391 40.633H133.68L134.575 45.1522ZM132.569 43.7206H133.414L132.991 41.4318L132.569 43.7206Z" fill="#24295C"/>
<path d="M135.82 40.633V44.12C135.82 44.4431 135.998 44.5688 136.275 44.5688C136.553 44.5688 136.737 44.4521 136.737 44.12V40.633H137.565V44.0751C137.565 44.7977 137.12 45.2105 136.253 45.2105C135.386 45.2105 134.942 44.7977 134.942 44.0751V40.633H135.82Z" fill="#24295C"/>
<path d="M137.909 40.633H140.626V41.2792H139.709V45.1522H138.848V41.2792H137.931L137.909 40.633Z" fill="#24295C"/>
<path d="M141.893 45.1522H141.01V40.633H141.893V42.5717H142.888V40.633H143.788V45.1522H142.888V43.2179H141.893V45.1522Z" fill="#24295C"/>
<path d="M145.305 42.5358H146.511V43.182H145.305V44.5284H146.822V45.1746H144.405V40.633H146.8V41.2792H145.283L145.305 42.5358Z" fill="#24295C"/>
<path d="M148.15 41.903V45.1746H147.361V40.633H148.472L149.378 43.3257V40.633H150.162V45.1522H149.256L148.15 41.903Z" fill="#24295C"/>
<path d="M150.517 40.633H153.24V41.2792H152.318V45.1522H151.44V41.2792H150.517V40.633Z" fill="#24295C"/>
<path d="M153.629 40.633H154.507V45.1522H153.629V40.633Z" fill="#24295C"/>
<path d="M157.696 43.4693V44.0706C157.696 44.7932 157.252 45.206 156.385 45.206C155.518 45.206 155.074 44.7932 155.074 44.0706V41.719C155.074 40.992 155.524 40.5791 156.385 40.5791C157.246 40.5791 157.696 40.992 157.696 41.719V42.1678H156.868V41.6831C156.868 41.36 156.691 41.2343 156.413 41.2343C156.135 41.2343 155.957 41.36 155.957 41.6831V44.1245C155.957 44.4476 156.129 44.5733 156.413 44.5733C156.696 44.5733 156.868 44.4611 156.868 44.1245V43.4782L157.696 43.4693Z" fill="#24295C"/>
<path d="M161.075 45.1522H160.186L160.036 44.3354H158.963L158.808 45.1522H158.002L158.897 40.633H160.186L161.075 45.1522ZM159.069 43.7206H159.914L159.491 41.4318L159.069 43.7206Z" fill="#24295C"/>
<path d="M160.925 40.633H163.648V41.2792H162.742V45.1522H161.864V41.2792H160.941L160.925 40.633Z" fill="#24295C"/>
<path d="M164.909 42.5358H166.115V43.182H164.909V44.5284H166.431V45.1746H164.031V40.633H166.431V41.2792H164.909V42.5358Z" fill="#24295C"/>
<path d="M169.037 43.6533L167.926 40.633H168.854L169.526 42.6929L170.199 40.633H171.038L169.927 43.6533V45.1522H169.049L169.037 43.6533Z" fill="#24295C"/>
<path d="M171.188 41.719C171.188 41.4333 171.328 41.1594 171.579 40.9574C171.829 40.7554 172.168 40.6419 172.522 40.6419C172.875 40.6419 173.214 40.7554 173.465 40.9574C173.715 41.1594 173.855 41.4333 173.855 41.719V44.0706C173.855 44.3562 173.715 44.6302 173.465 44.8322C173.214 45.0342 172.875 45.1477 172.522 45.1477C172.168 45.1477 171.829 45.0342 171.579 44.8322C171.328 44.6302 171.188 44.3562 171.188 44.0706V41.719ZM172.066 44.1155C172.066 44.4386 172.244 44.5643 172.522 44.5643C172.799 44.5643 172.977 44.4431 172.977 44.1155V41.6741C172.977 41.351 172.799 41.2253 172.522 41.2253C172.244 41.2253 172.066 41.351 172.066 41.6741V44.1155Z" fill="#24295C"/>
<path d="M175.261 40.633V44.12C175.261 44.4431 175.439 44.5688 175.717 44.5688C175.994 44.5688 176.172 44.4521 176.172 44.12V40.633H177.006V44.0751C177.006 44.7977 176.561 45.2105 175.694 45.2105C174.828 45.2105 174.383 44.7977 174.383 44.0751V40.633H175.261Z" fill="#24295C"/>
<path d="M179.445 45.1522C179.371 44.9732 179.345 44.7836 179.367 44.5957V43.8866C179.367 43.4693 179.19 43.3122 178.812 43.3122H178.506V45.1522H177.628V40.633H178.956C179.867 40.633 180.256 40.974 180.256 41.6741V42.0287C180.285 42.206 180.247 42.3861 180.148 42.546C180.049 42.7059 179.893 42.8383 179.701 42.9262C180.14 43.0743 180.284 43.4154 180.284 43.8866V44.5957C180.267 44.7816 180.299 44.9683 180.379 45.1432L179.445 45.1522ZM178.484 41.2792V42.6659H178.856C179.184 42.6659 179.384 42.5493 179.384 42.1902V41.7415C179.384 41.4183 179.251 41.2927 178.939 41.2927L178.484 41.2792Z" fill="#24295C"/>
<path d="M184.907 45.1522H184.018L183.868 44.3354H182.785L182.635 45.1522H181.829L182.746 40.633H184.035L184.907 45.1522ZM182.901 43.7206H183.746L183.301 41.4542L182.901 43.7206Z" fill="#24295C"/>
<path d="M187.858 43.4693V44.0706C187.858 44.7932 187.408 45.206 186.547 45.206C185.685 45.206 185.235 44.7932 185.235 44.0706V41.719C185.235 40.992 185.68 40.5791 186.547 40.5791C187.413 40.5791 187.858 40.992 187.858 41.719V42.1678H187.024V41.6831C187.024 41.36 186.847 41.2343 186.569 41.2343C186.291 41.2343 186.113 41.36 186.113 41.6831V44.1245C186.113 44.4476 186.291 44.5733 186.569 44.5733C186.847 44.5733 187.024 44.4611 187.024 44.1245V43.4782L187.858 43.4693Z" fill="#24295C"/>
<path d="M190.942 43.4693V44.0706C190.942 44.7932 190.497 45.206 189.63 45.206C188.764 45.206 188.319 44.7932 188.319 44.0706V41.719C188.319 40.992 188.769 40.5791 189.63 40.5791C190.492 40.5791 190.942 40.992 190.942 41.719V42.1678H190.108V41.6831C190.108 41.36 189.936 41.2343 189.653 41.2343C189.369 41.2343 189.197 41.36 189.197 41.6831V44.1245C189.197 44.4476 189.375 44.5733 189.653 44.5733C189.931 44.5733 190.108 44.4611 190.108 44.1245V43.4782L190.942 43.4693Z" fill="#24295C"/>
<path d="M191.403 41.719C191.391 41.5714 191.417 41.4234 191.479 41.2842C191.541 41.145 191.637 41.0175 191.762 40.9096C191.888 40.8017 192.039 40.7157 192.207 40.6569C192.375 40.5981 192.556 40.5678 192.739 40.5678C192.923 40.5678 193.104 40.5981 193.272 40.6569C193.44 40.7157 193.591 40.8017 193.716 40.9096C193.842 41.0175 193.938 41.145 194 41.2842C194.062 41.4234 194.088 41.5714 194.076 41.719V44.0706C194.088 44.2182 194.062 44.3662 194 44.5054C193.938 44.6446 193.842 44.7721 193.716 44.88C193.591 44.9879 193.44 45.0739 193.272 45.1327C193.104 45.1915 192.923 45.2218 192.739 45.2218C192.556 45.2218 192.375 45.1915 192.207 45.1327C192.039 45.0739 191.888 44.9879 191.762 44.88C191.637 44.7721 191.541 44.6446 191.479 44.5054C191.417 44.3662 191.391 44.2182 191.403 44.0706V41.719ZM192.287 44.1155C192.287 44.4386 192.459 44.5643 192.742 44.5643C193.026 44.5643 193.198 44.4431 193.198 44.1155V41.6741C193.198 41.351 193.02 41.2253 192.742 41.2253C192.464 41.2253 192.287 41.351 192.287 41.6741V44.1155Z" fill="#24295C"/>
<path d="M195.482 40.633V44.12C195.482 44.4431 195.659 44.5688 195.937 44.5688C196.215 44.5688 196.393 44.4521 196.393 44.12V40.633H197.226V44.0751C197.226 44.7977 196.782 45.2105 195.915 45.2105C195.048 45.2105 194.604 44.7977 194.604 44.0751V40.633H195.482Z" fill="#24295C"/>
<path d="M198.61 41.903V45.1746H197.821V40.633H198.932L199.838 43.3257V40.633H200.622V45.1522H199.716L198.61 41.903Z" fill="#24295C"/>
<path d="M200.983 40.633H203.705V41.2792H202.783V45.1522H201.905V41.2792H200.983V40.633Z" fill="#24295C"/>
<path d="M204.678 55.2101H128.985V62.6419H204.678V55.2101Z" fill="#D56B6B" stroke="#24295C" stroke-width="0.985332" stroke-miterlimit="10"/>
<path d="M161.742 57.1758C162.608 57.1758 163.009 57.6245 163.009 58.3022V60.582C163.009 61.2731 162.608 61.6995 161.742 61.6995H160.425V57.1758H161.742ZM161.742 61.2417C162.192 61.2417 162.408 61.0128 162.408 60.6V58.2753C162.408 57.8624 162.192 57.638 161.736 57.638H161.075V61.2283L161.742 61.2417Z" fill="#24295C"/>
<path d="M163.548 58.2528C163.548 57.5617 163.97 57.1129 164.826 57.1129C165.681 57.1129 166.115 57.5617 166.115 58.2528V60.591C166.14 60.7368 166.126 60.8855 166.072 61.0263C166.018 61.167 165.926 61.2963 165.803 61.4049C165.679 61.5135 165.528 61.5987 165.359 61.6543C165.19 61.7099 165.008 61.7345 164.826 61.7264C163.97 61.7264 163.548 61.2776 163.548 60.591V58.2528ZM164.159 60.6179C164.159 61.0308 164.375 61.2686 164.826 61.2686C165.276 61.2686 165.487 61.0308 165.487 60.6179V58.2528C165.487 57.8444 165.281 57.5976 164.826 57.5976C164.37 57.5976 164.159 57.8444 164.159 58.2528V60.6179Z" fill="#24295C"/>
<path d="M167.254 61.6995H166.698V57.1758H167.487L168.782 60.4474V57.1758H169.338V61.6995H168.687L167.254 58.0419V61.6995Z" fill="#24295C"/>
<path d="M171.966 59.1818V59.6306H170.599V61.2417H172.266V61.6905H169.965V57.1758H172.271V57.6245H170.604V59.1683L171.966 59.1818Z" fill="#24295C"/>
<path d="M221.642 1H112.254V4.59924H221.642V1Z" fill="#D56B6B" stroke="#24295C" stroke-width="0.985332" stroke-linecap="round" stroke-linejoin="round"/>
<path d="M38.6727 116.01V115.345" stroke="#263238" stroke-width="0.985332" stroke-linecap="round" stroke-linejoin="round"/>
<path d="M38.6727 114.03V57.1293C38.6727 55.9797 38.9532 54.8413 39.4981 53.7793C40.0429 52.7172 40.8416 51.7523 41.8483 50.9396C42.8551 50.1269 44.0502 49.4824 45.3655 49.0429C46.6808 48.6033 48.0904 48.3774 49.5138 48.378H101.063" stroke="#24295C" stroke-width="0.985332" stroke-linecap="round" stroke-linejoin="round" stroke-dasharray="2.93 2.93"/>
<path d="M101.902 48.378H102.719" stroke="#263238" stroke-width="0.985332" stroke-linecap="round" stroke-linejoin="round"/>
<path d="M108.136 48.7415L99.2792 44.6082V52.8703L108.136 48.7415Z" fill="#24295C"/>
<path d="M192.692 171.43H193.515" stroke="#263238" stroke-width="0.985332" stroke-linecap="round" stroke-linejoin="round"/>
<path d="M195.143 171.43H198.182C201.066 171.43 203.832 170.504 205.872 168.857C207.911 167.21 209.057 164.976 209.057 162.647V79.6223" stroke="#24295C" stroke-width="0.985332" stroke-linecap="round" stroke-linejoin="round" stroke-dasharray="2.93 2.93"/>
<path d="M209.057 78.967V78.3073" stroke="#263238" stroke-width="0.985332" stroke-linecap="round" stroke-linejoin="round"/>
<path d="M189.592 171.044L198.449 175.173V166.91L189.592 171.044Z" fill="#24295C"/>
<g clip-path="url(#clip0)">
<path d="M162.493 20.8462H163.704V19.718H162.493V20.8462ZM169.757 20.8462H170.967V19.718H169.757V20.8462ZM169.878 23.8923C169.511 24.3477 169.036 24.7173 168.49 24.9719C167.943 25.2265 167.341 25.359 166.73 25.359C166.119 25.359 165.517 25.2265 164.971 24.9719C164.424 24.7173 163.949 24.3477 163.583 23.8923L162.614 24.5692C164.672 27.1269 168.788 27.1269 170.846 24.5692L169.878 23.8923ZM158.861 19.718V16.8974H157.651V19.718H158.861ZM160.677 15.2051H163.704V14.0769H160.677V15.2051ZM158.861 16.8974C158.861 16.4486 159.053 16.0182 159.393 15.7008C159.734 15.3834 160.196 15.2051 160.677 15.2051V14.0769C159.875 14.0769 159.105 14.3741 158.537 14.903C157.97 15.432 157.651 16.1494 157.651 16.8974H158.861ZM157.651 25.359V28.1795H158.861V25.359H157.651ZM160.677 31H163.704V29.8718H160.677V31ZM157.651 28.1795C157.651 28.9275 157.97 29.645 158.537 30.1739C159.105 30.7029 159.875 31 160.677 31V29.8718C160.196 29.8718 159.734 29.6935 159.393 29.3761C159.053 29.0588 158.861 28.6283 158.861 28.1795H157.651ZM169.757 15.2051H172.783V14.0769H169.757V15.2051ZM174.599 16.8974V19.718H175.81V16.8974H174.599ZM172.783 15.2051C173.265 15.2051 173.727 15.3834 174.067 15.7008C174.408 16.0182 174.599 16.4486 174.599 16.8974H175.81C175.81 16.1494 175.491 15.432 174.923 14.903C174.356 14.3741 173.586 14.0769 172.783 14.0769V15.2051ZM169.757 31H172.783V29.8718H169.757V31ZM175.81 28.1795V25.359H174.599V28.1795H175.81ZM172.783 31C173.586 31 174.356 30.7029 174.923 30.1739C175.491 29.645 175.81 28.9275 175.81 28.1795H174.599C174.599 28.6283 174.408 29.0588 174.067 29.3761C173.727 29.6935 173.265 29.8718 172.783 29.8718V31Z" fill="#24295C"/>
</g>
<path d="M143.177 117.172C143.649 116.446 144.359 115.838 145.229 115.415C146.099 114.991 147.096 114.769 148.111 114.771H195.648C195.648 114.771 199.082 114.771 198.054 120.044C197.026 125.317 182.935 157.513 179.495 167.225C176.056 176.936 175.372 197.477 175.372 197.477H118.327C118.327 197.477 122.901 148.439 143.177 117.172Z" fill="white" stroke="#24295C" stroke-width="0.985332" stroke-linecap="round" stroke-linejoin="round"/>
<path d="M187.402 123.931C182.596 132.987 172.399 168.809 170.777 197.477H175.372C175.372 197.477 176.078 176.923 179.495 167.225C182.912 157.526 197.021 125.317 198.054 120.044C199.088 114.771 195.648 114.771 195.648 114.771C195.648 114.771 191.253 116.669 187.402 123.931Z" fill="#24295C" stroke="#24295C" stroke-width="0.985332" stroke-linecap="round" stroke-linejoin="round"/>
<path d="M97.0065 115.498C97.0065 115.498 88.2826 114.641 82.5203 109.749C76.7581 104.857 95.045 87.413 104.808 83.3022C114.571 79.1913 118.594 80.3178 129.063 86.5514C139.532 92.785 149.75 102.788 149.623 109.498C149.495 116.207 144.972 119.416 151.29 122.723C157.607 126.031 175.489 135.424 178.1 141.877C180.712 148.331 176.183 156.36 165.698 160.726C155.213 165.093 138.009 164.891 121.439 160.565C104.869 156.238 101.263 142.55 103.397 136.981C105.53 131.412 111.176 127.584 109.476 123.347C107.775 119.111 97.0065 115.498 97.0065 115.498Z" fill="#263238" stroke="#24295C" stroke-width="0.985332" stroke-linecap="round" stroke-linejoin="round"/>
<path d="M104.486 134.737C104.486 134.737 95.4618 133.723 91.2943 135.9C87.1268 138.076 66.5338 166.502 66.5338 166.502L55.1593 154.138L45.2963 157.715C45.2963 157.715 49.9194 172.166 55.2983 179.355C60.6771 186.545 63.7444 187.272 65.5892 187.034C71.0792 186.329 86.9823 171.47 86.9823 171.47L92.7612 186.998L88.8382 198.285H161.908L153.045 186.347C153.045 186.347 164.609 143.264 161.664 138.7C158.719 134.136 141.56 134.737 136.164 134.737H120.717C118.376 135.112 115.996 135.311 113.61 135.33C110.558 135.258 107.513 135.06 104.486 134.737Z" fill="#D56B6B"/>
<path d="M153.295 136.191L153.446 136.241L152.045 139.122L151.89 139.072L153.295 136.191ZM152.912 139.396L153.062 139.445L154.468 136.564L154.312 136.514L152.912 139.396ZM159.286 148.564L159.124 148.528L158.508 150.301H158.68L159.286 148.564ZM160.341 148.807L160.18 148.771L159.625 150.301H159.791L160.341 148.807ZM153.673 148.905L154.196 150.301H154.368L153.812 148.865L153.673 148.905ZM154.885 148.614L154.724 148.649L155.34 150.301H155.513L154.885 148.614ZM159.358 142.021L161.264 139.328L161.125 139.261L159.219 141.954L159.358 142.021ZM160.314 142.47L162.097 139.952C162.097 139.876 162.097 139.808 162.064 139.737L160.169 142.407L160.314 142.47ZM161.564 146.298L161.881 145.961L161.914 145.714L161.43 146.217L161.564 146.298ZM156.846 143.565L159.502 145.809L159.619 145.719L156.963 143.475L156.846 143.565ZM156.007 144.162L158.658 146.406L158.78 146.316L156.124 144.072L156.007 144.162ZM153.079 144.162L153.123 144.032L151.073 143.623V143.758L153.079 144.162ZM151.045 142.815L153.351 143.287L153.39 143.156L151.073 142.708L151.045 142.815ZM153.618 146.823L153.568 146.697L151.073 147.397V147.537L153.618 146.823ZM153.223 145.854L151.045 146.437V146.576L153.268 145.979L153.223 145.854ZM152.017 170.927L153.418 168.046L153.268 167.997L151.862 170.878L152.017 170.927ZM154.285 168.32L152.884 171.201L153.034 171.25L154.44 168.369L154.285 168.32ZM154.212 181.828L153.784 180.675L153.623 180.711L154.146 182.102L154.212 181.828ZM156.991 162.45L156.835 162.494L158.135 165.407H158.169L158.219 165.205L156.991 162.45ZM157.863 162.194L158.547 163.715C158.547 163.63 158.585 163.545 158.602 163.455L158.019 162.149L157.863 162.194ZM160.297 154.609L160.386 154.847L160.436 154.578L160.297 154.609ZM156.641 154.434L156.418 157.522H156.579L156.802 154.43L156.641 154.434ZM157.513 157.576H157.674L157.896 154.484H157.735L157.513 157.576ZM152.84 154.3L152.918 154.183L151.028 153.362V153.514L152.84 154.3ZM151.028 152.505L153.357 153.514L153.434 153.398L151.073 152.388L151.028 152.505ZM152.484 157.176L152.379 157.078L151.073 158.074V158.249L152.484 157.176ZM151.767 156.508L151.662 156.404L151.028 156.853V157.028L151.767 156.508ZM151.073 161.817V161.956L154.529 160.865L154.468 160.744L151.073 161.817ZM151.073 160.865V161.009L154.129 160.044L154.068 159.918L151.073 160.865ZM153.112 166.484L153.151 166.354L151.073 165.977V166.112L153.112 166.484ZM153.351 165.622L153.39 165.492L151.073 165.07V165.205L153.351 165.622ZM153.079 176.025L153.123 175.9L151.045 175.473V175.612L153.079 176.025ZM151.073 174.679L153.379 175.155L153.418 175.024L151.073 174.549V174.679ZM153.646 178.687L153.596 178.561L151.073 179.234V179.378L153.646 178.687ZM153.301 177.847L153.251 177.722L151.073 178.305V178.444L153.301 177.847ZM158.241 151.54L158.68 150.297H158.508L158.085 151.504L158.241 151.54ZM159.813 150.297H159.647L159.141 151.742L159.297 151.782L159.813 150.297ZM154.757 151.863L154.918 151.827L154.362 150.297H154.19L154.757 151.863ZM155.963 151.571L155.49 150.297H155.318L155.807 151.611L155.963 151.571ZM156.88 194.362L158.18 197.271L158.335 197.226L157.035 194.318L156.88 194.362ZM159.363 196.925L158.063 194.017L157.908 194.062L159.213 196.97L159.363 196.925ZM161.203 197.643L161.041 197.607L160.808 198.28H160.98L161.203 197.643ZM151.073 185.382L152.884 186.168L152.962 186.051L151.073 185.23V185.382ZM151.073 184.377L153.295 185.36L153.329 185.225L151.073 184.229V184.377ZM152.501 189.04L152.395 188.937L151.073 189.893V190.063L152.501 189.04ZM151.784 188.367L151.679 188.268L151.045 188.717V188.892L151.784 188.367ZM154.44 192.567L151.073 193.653V193.797L154.529 192.702L154.44 192.567ZM151.045 192.832L154.101 191.867L154.04 191.746L151.045 192.689V192.832ZM151.045 197.8V197.939L152.884 198.271H153.095L153.123 198.182L151.045 197.8ZM153.323 197.446L153.362 197.315L151.045 196.894V197.033L153.323 197.446ZM112.443 139.059L112.593 139.108L113.999 136.227L113.843 136.178L112.443 139.059ZM113.46 139.382L113.615 139.431L115.016 136.55L114.866 136.501L113.46 139.382ZM149.367 143.399L151.034 143.744V143.61L149.395 143.273L149.367 143.399ZM149.678 142.416L149.634 142.542L151.045 142.833V142.694L149.678 142.416ZM151.073 147.537V147.397L149.962 147.698L150.012 147.824L151.073 147.537ZM149.584 146.854L149.634 146.98L151.045 146.603V146.464L149.584 146.854ZM146.628 150.301H146.816L147.539 149.287L147.4 149.219L146.628 150.301ZM147.894 150.301H148.083L148.489 149.727L148.35 149.659L147.894 150.301ZM139.632 149.062L139.504 149.148L140.676 150.301H140.887L139.632 149.062ZM140.354 148.587L142.093 150.301H142.304L140.482 148.506L140.354 148.587ZM136.209 150.099L136.059 150.144L136.125 150.301H136.303L136.209 150.099ZM137.087 149.843L137.292 150.292H137.465L137.242 149.789L137.087 149.843ZM131.074 150.292L131.547 148.789L131.386 148.757L130.902 150.292H131.074ZM132.447 148.973L132.03 150.292H132.18L132.586 149.009L132.447 148.973ZM119.85 148.555L119.689 148.519L119.066 150.292H119.239L119.85 148.555ZM120.9 148.798L120.745 148.762L120.189 150.292H120.361L120.9 148.798ZM114.232 148.896L114.755 150.292H114.927L114.371 148.856L114.232 148.896ZM115.438 148.605L115.282 148.641L115.899 150.292H116.066L115.438 148.605ZM119.917 142.012L121.823 139.319L121.678 139.252L119.772 141.945L119.917 142.012ZM120.728 142.389L120.867 142.452L122.773 139.759L122.628 139.692L120.728 142.389ZM142.471 144.364L146 145.571L146.061 145.45L142.532 144.242L142.471 144.364ZM142.043 145.176L145.572 146.383L145.633 146.262L142.077 145.059L142.043 145.176ZM145.016 140.527L145.172 140.562L146.216 137.587L146.055 137.547L145.016 140.527ZM146.066 140.769L146.227 140.805L147.267 137.825L147.111 137.789L146.066 140.769ZM140.332 135.231L141.443 138.193L141.599 138.157L140.515 135.186L140.332 135.231ZM141.376 134.975L142.488 137.937L142.643 137.901L141.532 134.939L141.376 134.975ZM129.269 147.662L128.157 144.7L128.002 144.736L129.113 147.703L129.269 147.662ZM130.319 147.406L129.207 144.444L129.046 144.48L130.158 147.447L130.319 147.406ZM134.653 145.692L138.448 145.243V145.113L134.653 145.562V145.692ZM134.809 146.567L138.604 146.118V145.988L134.809 146.437V146.567ZM137.587 142.793L137.748 142.824L138.604 139.808L138.443 139.777L137.587 142.793ZM139.509 139.975L138.654 142.99L138.815 143.022L139.671 140.006L139.509 139.975ZM126.068 141.074L126.207 141.146L128.257 138.529L128.118 138.462L126.068 141.074ZM129.185 139.005L129.046 138.933L126.996 141.55L127.135 141.622L129.185 139.005ZM125.623 135.994L129.135 134.755V134.724H128.835L125.573 135.873L125.623 135.994ZM125.996 136.68L126.062 136.802L129.574 135.567L129.507 135.446L125.996 136.68ZM122.662 134.724H122.489L121.623 137.156L121.784 137.192L122.662 134.724ZM120.745 136.968L121.523 134.724H121.35L120.583 136.914L120.745 136.968ZM135.781 135.675L135.403 134.737H135.231L135.592 135.707L135.781 135.675ZM134.575 135.967L134.736 135.931L134.292 134.742H134.119L134.575 135.967ZM121.995 146.226L122.123 146.307L124.456 143.852L124.323 143.771L121.995 146.226ZM122.862 146.765L122.995 146.845L125.323 144.386L125.195 144.305L122.862 146.765ZM117.405 143.574L120.061 145.818L120.183 145.728L117.527 143.484L117.405 143.574ZM116.583 144.162L119.239 146.406L119.355 146.316L116.705 144.072L116.583 144.162ZM131.13 140.194L131.063 140.316L134.592 141.527L134.658 141.402L131.13 140.194ZM131.491 139.503L135.02 140.711L135.086 140.589L131.558 139.382L131.491 139.503ZM113.66 144.162L113.699 144.032L111.621 143.623V143.758L113.66 144.162ZM111.626 142.815L113.927 143.287L113.971 143.156L111.621 142.708L111.626 142.815ZM114.199 146.823L114.143 146.697L111.621 147.397V147.537L114.199 146.823ZM113.799 145.854L111.626 146.437V146.576L113.849 145.979L113.799 145.854ZM113.843 167.997L112.443 170.878L112.593 170.927L113.999 168.046L113.843 167.997ZM114.866 168.32L113.46 171.201L113.615 171.25L115.016 168.369L114.866 168.32ZM149.484 152.832L151.045 153.514V153.362L149.561 152.715L149.484 152.832ZM150.078 151.935L150 152.047L151.045 152.496V152.343L150.078 151.935ZM151.073 158.074L149.523 159.16L149.628 159.259L151.073 158.249V158.074ZM148.911 158.59L151.073 157.082V156.907L148.806 158.487L148.911 158.59ZM150.901 161.893L150.956 162.019L151.073 161.978V161.839L150.901 161.893ZM150.5 161.072L150.556 161.193L151.073 161.031V160.888L150.5 161.072ZM151.056 166.008L149.389 165.703L149.35 165.833L151.051 166.143L151.056 166.008ZM151.056 165.111L149.634 164.851L149.6 164.981L151.056 165.245V165.111ZM151.056 175.5L149.406 175.128L149.367 175.258L151.034 175.603L151.056 175.5ZM149.689 174.306L149.645 174.437L151.073 174.679V174.544L149.689 174.306ZM151.073 179.378V179.234L149.962 179.535L150.012 179.66L151.073 179.378ZM151.073 178.444V178.305L149.611 178.696L149.661 178.821L151.073 178.444ZM128.513 151.872L124.984 150.66L124.923 150.781L128.452 151.993L128.513 151.872ZM124.495 151.598L128.024 152.805L128.085 152.684L124.556 151.477L124.495 151.598ZM147.528 181.123L147.389 181.061L146.628 182.142H146.816L147.528 181.123ZM148.478 181.572L148.339 181.505L147.883 182.151H148.072L148.478 181.572ZM139.493 180.993L140.665 182.151H140.876L139.621 180.908L139.493 180.993ZM140.343 180.432L142.082 182.151H142.293L140.471 180.356L140.343 180.432ZM136.198 181.949L136.048 181.994L136.114 182.151H136.292L136.198 181.949ZM137.076 181.693L137.281 182.142H137.453L137.231 181.64L137.076 181.693ZM131.519 180.648L131.358 180.612L130.874 182.151H131.069L131.519 180.648ZM132.419 180.832L132.002 182.151H132.18L132.586 180.863L132.419 180.832ZM119.822 180.41L119.661 180.374L119.039 182.169H119.211L119.822 180.41ZM120.872 180.652L120.717 180.616L120.161 182.151H120.333L120.872 180.652ZM114.204 180.751L114.727 182.151H114.899L114.343 180.715L114.204 180.751ZM115.255 180.5L115.871 182.151H116.038L115.41 180.459L115.255 180.5ZM121.65 171.12L119.744 173.813L119.889 173.88L121.795 171.187L121.65 171.12ZM122.762 171.623L122.617 171.555L120.717 174.248L120.856 174.315L122.762 171.623ZM138.259 156.876L135.814 154.484L135.692 154.569L138.115 156.965L138.259 156.876ZM137.415 157.437L134.959 155.031L134.831 155.116L137.259 157.513L137.415 157.437ZM131.408 156.126L132.708 159.034L132.864 158.989L131.563 156.081L131.408 156.126ZM132.441 155.826L133.742 158.734L133.892 158.689L132.591 155.781L132.441 155.826ZM146.05 177.304L142.521 176.097L142.46 176.218L145.988 177.425L146.05 177.304ZM145.622 178.121L142.093 176.909L142.032 177.035L145.561 178.242L145.622 178.121ZM146.044 169.406L145.005 172.386L145.161 172.422L146.205 169.442L146.044 169.406ZM147.255 169.684L147.1 169.648L146.055 172.623L146.216 172.659L147.255 169.684ZM141.604 170.003L140.493 167.041L140.337 167.077L141.449 170.043L141.604 170.003ZM142.654 169.747L141.543 166.785L141.382 166.821L142.493 169.787L142.654 169.747ZM131.541 161.996L129.635 164.689L129.774 164.752L131.68 162.059L131.541 161.996ZM130.73 161.624L130.585 161.556L128.685 164.249L128.824 164.312L130.73 161.624ZM124.256 164.07L121.828 161.664L121.7 161.749L124.129 164.146L124.256 164.07ZM125.101 163.509L122.678 161.112L122.551 161.197L124.973 163.594L125.101 163.509ZM117.433 162.535L118.733 165.447L118.889 165.403L117.583 162.49L117.433 162.535ZM118.461 162.234L119.761 165.147L119.917 165.102L118.616 162.189L118.461 162.234ZM144.961 164.59L145.122 164.622L146.066 161.624L145.905 161.588L144.961 164.59ZM147.128 161.839L146.966 161.808L146.022 164.806L146.183 164.837L147.128 161.839ZM140.86 164.357L137.331 163.15L137.27 163.271L140.799 164.483L140.86 164.357ZM141.288 163.545L137.737 162.337L137.676 162.459L141.204 163.666L141.288 163.545ZM129.269 179.503L128.157 176.537L128.002 176.577L129.113 179.539L129.269 179.503ZM130.319 179.247L129.207 176.281L129.046 176.321L130.158 179.283L130.319 179.247ZM138.448 177.098V176.968L134.653 177.416V177.547L138.448 177.098ZM138.604 177.973V177.843L134.809 178.292V178.422L138.604 177.973ZM137.737 174.679L138.593 171.663L138.431 171.632L137.576 174.652L137.737 174.679ZM138.804 174.876L139.659 171.861L139.498 171.829L138.643 174.849L138.804 174.876ZM128.246 170.389L128.107 170.317L126.068 172.915L126.207 172.987L128.246 170.389ZM129.174 170.86L129.035 170.788L126.985 173.404L127.124 173.476L129.174 170.86ZM129.124 166.61L129.063 166.489L125.546 167.727L125.612 167.848L129.124 166.61ZM129.563 167.422L129.496 167.301L125.985 168.54L126.051 168.661L129.563 167.422ZM122.812 166.076L122.656 166.035L121.623 168.993L121.784 169.029L122.812 166.076ZM120.717 168.813L121.756 165.833L121.6 165.797L120.556 168.777L120.717 168.813ZM135.748 167.498L134.636 164.536L134.475 164.572L135.586 167.539L135.748 167.498ZM133.442 164.806L134.553 167.768L134.714 167.732L133.603 164.77L133.442 164.806ZM128.113 157.176L125.051 159.043L125.151 159.147L128.213 157.284L128.113 157.176ZM125.812 159.869L128.868 158.002L128.774 157.899L125.712 159.761L125.812 159.869ZM123.167 157.307L122.106 154.331L121.945 154.371L123.012 157.342L123.167 157.307ZM120.895 154.614L121.956 157.625L122.117 157.589L121.067 154.605L120.895 154.614ZM117.238 154.439L117.016 157.526H117.177L117.399 154.434L117.238 154.439ZM118.105 157.58H118.272L118.494 154.488H118.327L118.105 157.58ZM124.401 175.671L124.268 175.59L121.939 178.049L122.067 178.13L124.401 175.671ZM125.268 176.209L125.14 176.128L122.806 178.588L122.939 178.669L125.268 176.209ZM117.349 175.392L120.006 177.636L120.128 177.542L117.472 175.298L117.349 175.392ZM116.583 176.025L119.239 178.269L119.355 178.179L116.705 175.935L116.583 176.025ZM144.488 158.787L144.36 158.707L141.949 161.112L142.077 161.197L144.488 158.787ZM143.51 158.15L141.099 160.556L141.226 160.641L143.632 158.231L143.51 158.15ZM144.183 153.586H144.021L143.588 156.66H143.755L144.183 153.586ZM142.932 153.469L142.504 156.548H142.666L143.093 153.474L142.932 153.469ZM134.658 173.261L131.13 172.054L131.063 172.175L134.592 173.382L134.658 173.261ZM131.491 171.358L135.02 172.565L135.086 172.444L131.558 171.237L131.491 171.358ZM113.438 154.345L113.515 154.228L111.626 153.407V153.559L113.438 154.345ZM111.626 152.549L113.954 153.559L114.032 153.442L111.621 152.388L111.626 152.549ZM113.082 157.221L112.971 157.123L111.621 158.074V158.249L113.082 157.221ZM112.365 156.553L112.254 156.449L111.626 156.898V157.073L112.365 156.553ZM115.016 160.753L111.626 161.826V161.965L115.077 160.874L115.016 160.753ZM114.677 160.053L114.621 159.927L111.621 160.865V161.009L114.677 160.053ZM113.665 166.493L113.699 166.363L111.626 165.986V166.121L113.665 166.493ZM111.621 165.205L113.899 165.622L113.938 165.492L111.621 165.07V165.205ZM113.66 176.025L113.699 175.9L111.626 175.473V175.612L113.66 176.025ZM111.621 174.679L113.921 175.155L113.965 175.024L111.621 174.549V174.679ZM114.193 178.687L114.138 178.561L111.621 179.234V179.378L114.193 178.687ZM113.849 177.847L113.793 177.722L111.621 178.305V178.444L113.849 177.847ZM145.477 151.903L145.616 151.966L146.8 150.297H146.628L145.477 151.903ZM146.427 152.352L146.566 152.415L148.067 150.306H147.878L146.427 152.352ZM142.043 151.454L140.871 150.297H140.66L141.915 151.535L142.043 151.454ZM142.766 150.979L142.893 150.893L142.288 150.297H142.077L142.766 150.979ZM137.498 153.007L136.287 150.314H136.109L137.342 153.07L137.498 153.007ZM138.37 152.751L138.526 152.706L137.448 150.297H137.276L138.37 152.751ZM130.424 151.76L130.585 151.791L131.058 150.297H130.885L130.424 151.76ZM131.486 151.979L131.647 152.011L132.202 150.297H132.03L131.486 151.979ZM118.789 151.531L119.222 150.288H119.05L118.628 151.495L118.789 151.531ZM120.361 150.288H120.189L119.683 151.733L119.844 151.773L120.361 150.288ZM115.305 151.854L115.46 151.818L114.905 150.288H114.732L115.305 151.854ZM116.51 151.562L116.033 150.288H115.866L116.349 151.602L116.51 151.562ZM149.556 184.57L149.478 184.687L151.039 185.369V185.216L149.556 184.57ZM150.073 183.794L149.995 183.91L151.039 184.359V184.211L150.073 183.794ZM151.073 190.063V189.893L149.523 190.974L149.628 191.073L151.073 190.063ZM151.073 188.896V188.721L148.806 190.306L148.911 190.404L151.073 188.896ZM150.901 193.707L150.956 193.833L151.073 193.797V193.653L150.901 193.707ZM150.5 192.886L150.556 193.012L151.073 192.846V192.702L150.5 192.886ZM149.389 197.513L149.35 197.643L151.051 197.953V197.814L149.389 197.513ZM151.056 196.907L149.634 196.647L149.6 196.777L151.056 197.046V196.907ZM128.513 183.708L124.984 182.501L124.923 182.622L128.452 183.83L128.513 183.708ZM124.495 183.435L128.024 184.646L128.085 184.521L124.556 183.313L124.495 183.435ZM135.692 186.392L138.115 188.789L138.243 188.703L135.814 186.311L135.692 186.392ZM137.398 189.264L134.959 186.872L134.831 186.953L137.259 189.35L137.398 189.264ZM132.847 190.835L131.547 187.922L131.391 187.967L132.691 190.88L132.847 190.835ZM133.875 190.534L132.575 187.622L132.425 187.667L133.725 190.579L133.875 190.534ZM131.652 193.905L131.513 193.837L129.607 196.53L129.746 196.597L131.652 193.905ZM130.702 193.456L130.558 193.393L128.657 196.086L128.796 196.153L130.702 193.456ZM124.229 195.902L121.828 193.528L121.7 193.609L124.129 196.005L124.229 195.902ZM125.073 195.341L122.651 192.949L122.523 193.03L124.945 195.426L125.073 195.341ZM118.861 197.235L117.555 194.327L117.405 194.371L118.705 197.28L118.861 197.235ZM119.889 196.934L118.589 194.026L118.433 194.071L119.733 196.979L119.889 196.934ZM146.005 193.465L145.844 193.434L144.899 196.431L145.061 196.463L146.005 193.465ZM147.066 193.68L146.905 193.649L145.961 196.651L146.122 196.683L147.066 193.68ZM140.86 196.22L137.331 195.013L137.27 195.134L140.799 196.342L140.86 196.22ZM141.288 195.404L137.737 194.174L137.676 194.295L141.204 195.507L141.288 195.404ZM122.651 197.876L122.495 198.325H122.667L122.806 197.93L122.651 197.876ZM121.75 197.67L121.595 197.634L121.356 198.307H121.528L121.75 197.67ZM134.486 196.431L135.186 198.307H135.359L134.647 196.391L134.486 196.431ZM133.597 196.647L133.442 196.683L134.042 198.307H134.214L133.597 196.647ZM128.213 189.184L128.113 189.08L125.051 190.943L125.151 191.05L128.213 189.184ZM128.868 189.893L128.774 189.785L125.712 191.647L125.812 191.755L128.868 189.893ZM123.012 189.233L123.167 189.193L122.106 186.222L121.945 186.257L123.012 189.233ZM122.117 189.439L121.067 186.446L120.911 186.482L121.973 189.453L122.117 189.439ZM117.177 189.439L117.399 186.352H117.238L117.016 189.444L117.177 189.439ZM118.289 189.493L118.511 186.401H118.344L118.122 189.489L118.289 189.493ZM144.505 190.651L144.377 190.566L141.965 192.971L142.093 193.057L144.505 190.651ZM143.527 190.009L141.115 192.415L141.243 192.5L143.649 190.095L143.527 190.009ZM144.199 185.45H144.038L143.605 188.524H143.771L144.199 185.45ZM142.949 185.337L142.521 188.412H142.682L143.11 185.333L142.949 185.337ZM113.454 186.208L113.532 186.091L111.643 185.27V185.423L113.454 186.208ZM114.049 185.311L111.621 184.229V184.377L113.949 185.391L114.049 185.311ZM113.082 189.04L112.971 188.937L111.621 189.888V190.063L113.082 189.04ZM112.365 188.367L112.254 188.268L111.626 188.717V188.892L112.365 188.367ZM115.016 192.567L111.626 193.64V193.784L115.077 192.689L115.016 192.567ZM111.626 192.832L114.677 191.867L114.621 191.746L111.626 192.689V192.832ZM111.626 197.8V197.939L113.465 198.271H113.671L113.699 198.182L111.626 197.8ZM113.904 197.446L113.943 197.315L111.626 196.894V197.033L113.904 197.446ZM145.622 183.798L146.805 182.129H146.628L145.516 183.731L145.622 183.798ZM147.883 182.129L146.433 184.171L146.572 184.238L148.072 182.129H147.883ZM141.921 183.367L142.049 183.282L140.876 182.129H140.665L141.921 183.367ZM142.771 182.806L142.899 182.721L142.293 182.129H142.082L142.771 182.806ZM137.503 184.835L136.292 182.142H136.114L137.348 184.893L137.503 184.835ZM138.376 184.584L138.531 184.534L137.453 182.129H137.281L138.376 184.584ZM130.597 183.623L131.069 182.129H130.897L130.435 183.592L130.597 183.623ZM131.497 183.807L131.658 183.839L132.214 182.129H132.041L131.497 183.807ZM118.8 183.358L119.233 182.12H119.061L118.639 183.322L118.8 183.358ZM120.2 182.12L119.694 183.565L119.856 183.601L120.372 182.12H120.2ZM115.316 183.686L115.471 183.646L114.916 182.12H114.743L115.316 183.686ZM116.36 183.43L116.522 183.394L116.044 182.12H115.877L116.36 183.43ZM109.954 143.412L111.621 143.758V143.623L109.981 143.287L109.954 143.412ZM110.265 142.429L110.226 142.555L111.637 142.847V142.708L110.265 142.429ZM111.621 147.537V147.397L110.509 147.698L110.565 147.824L111.621 147.537ZM110.165 146.854L110.215 146.98L111.626 146.603V146.464L110.165 146.854ZM107.175 150.301H107.364L108.087 149.287L107.942 149.219L107.175 150.301ZM108.437 150.301H108.626L109.037 149.727L108.892 149.659L108.437 150.301ZM100.179 149.062L100.052 149.148L101.224 150.301H101.435L100.179 149.062ZM100.902 148.587L102.635 150.301H102.852L101.03 148.506L100.902 148.587ZM96.7565 150.099L96.6009 150.144L96.6732 150.301H96.8454L96.7565 150.099ZM97.6345 149.843L97.8345 150.292H98.0123L97.79 149.789L97.6345 149.843ZM91.6166 150.292L92.0889 148.789L91.9333 148.757L91.4499 150.292H91.6166ZM92.9946 148.973L92.5779 150.292H92.7501L93.1502 149.009L92.9946 148.973ZM79.7865 150.292L80.3921 148.555L80.2366 148.519L79.6142 150.292H79.7865ZM81.4535 148.798L81.2923 148.762L80.7367 150.292H80.9089L81.4535 148.798ZM103.002 144.364L106.531 145.571L106.597 145.45L103.069 144.242L103.002 144.364ZM102.574 145.176L106.119 146.406L106.186 146.284L102.658 145.059L102.574 145.176ZM105.547 140.527L105.708 140.562L106.747 137.587L106.592 137.547L105.547 140.527ZM106.603 140.769L106.758 140.805L107.803 137.825L107.648 137.789L106.603 140.769ZM100.907 135.231L102.019 138.193L102.174 138.157L101.063 135.186L100.907 135.231ZM101.958 134.975L103.069 137.937L103.224 137.901L102.113 134.939L101.958 134.975ZM88.5882 144.736L89.6995 147.703L89.8551 147.662L88.7438 144.7L88.5882 144.736ZM90.8998 147.429L89.7885 144.467L89.6329 144.503L90.7442 147.469L90.8998 147.429ZM95.234 145.714L99.0292 145.266V145.136L95.234 145.584V145.714ZM95.3618 146.459V146.59L99.157 146.141V146.011L95.3618 146.459ZM99.1736 139.831L99.0125 139.8L98.1623 142.815L98.3179 142.847L99.1736 139.831ZM100.085 139.997L99.2292 143.013L99.3848 143.044L100.241 140.028L100.085 139.997ZM86.6156 141.074L86.7545 141.146L88.8049 138.529L88.666 138.462L86.6156 141.074ZM87.5436 141.55L87.6825 141.622L89.7329 139.005L89.594 138.933L87.5436 141.55ZM96.312 135.657L95.9563 134.701H95.7896L96.1564 135.675L96.312 135.657ZM95.1062 135.949L95.2618 135.913L94.8672 134.845L94.7061 134.872L95.1062 135.949ZM82.5259 146.208L82.6537 146.289L84.9819 143.834L84.8541 143.753L82.5259 146.208ZM85.8599 144.368L85.7265 144.287L83.3983 146.747L83.5317 146.827L85.8599 144.368ZM91.6944 140.199L91.6333 140.32L95.1617 141.532L95.2229 141.406L91.6944 140.199ZM92.0611 139.508L95.5896 140.715L95.6507 140.594L92.1222 139.387L92.0611 139.508ZM74.4132 168.028L73.0129 170.909L73.1629 170.958L74.5632 168.077L74.4132 168.028ZM75.43 168.351L74.0298 171.232L74.1798 171.282L75.5856 168.4L75.43 168.351ZM110.048 152.864L111.615 153.546V153.393L110.126 152.747L110.048 152.864ZM110.648 151.966L110.57 152.078L111.615 152.527V152.374L110.648 151.966ZM111.621 158.074L110.065 159.16L110.176 159.259L111.621 158.249V158.074ZM109.459 158.59L111.621 157.082V156.907L109.353 158.487L109.459 158.59ZM111.443 161.893L111.504 162.019L111.621 161.978V161.839L111.443 161.893ZM111.621 160.888L111.065 161.072L111.126 161.193L111.643 161.031L111.621 160.888ZM111.621 165.999L109.954 165.694L109.92 165.824L111.621 166.134V165.999ZM110.198 164.833L110.159 164.963L111.621 165.228V165.093L110.198 164.833ZM111.621 175.46L109.981 175.123L109.937 175.253L111.604 175.599L111.621 175.46ZM110.248 174.266L110.209 174.396L111.621 174.679V174.544L110.248 174.266ZM111.621 179.378V179.234L110.509 179.535L110.565 179.66L111.621 179.378ZM111.621 178.444V178.305L110.159 178.696L110.209 178.821L111.621 178.444ZM85.5043 150.781L89.0327 151.993L89.0994 151.872L85.5709 150.66L85.5043 150.781ZM85.0764 151.598L88.6049 152.805L88.6716 152.684L85.1431 151.477L85.0764 151.598ZM108.114 181.123L107.97 181.061L107.175 182.142H107.364L108.114 181.123ZM109.064 181.572L108.92 181.505L108.464 182.151H108.653L109.064 181.572ZM100.079 180.993L101.252 182.151H101.463L100.207 180.908L100.079 180.993ZM100.93 180.432L102.663 182.151H102.88L101.057 180.356L100.93 180.432ZM96.7843 181.949L96.6287 181.994L96.7009 182.151H96.8732L96.7843 181.949ZM97.6622 181.693L97.8623 182.142H98.0401L97.8178 181.64L97.6622 181.693ZM91.4777 182.142H91.6444L92.1167 180.639L91.9611 180.603L91.4777 182.142ZM93.0224 180.823L92.6057 182.142H92.7779L93.178 180.854L93.0224 180.823ZM74.9466 180.706L74.791 180.742L75.0966 181.559L75.23 181.46L74.9466 180.706ZM75.9968 180.45L75.8357 180.491L75.9857 180.877L76.1135 180.773L75.9968 180.45ZM82.3814 171.174L82.2369 171.111L80.331 173.804L80.4755 173.871L82.3814 171.174ZM81.4257 174.315L83.3316 171.623L83.1871 171.555L81.2812 174.248L81.4257 174.315ZM98.8402 156.867L96.3953 154.484L96.2675 154.569L98.6958 156.965L98.8402 156.867ZM97.9901 157.428L95.5618 155.031L95.4396 155.116L97.8623 157.513L97.9901 157.428ZM91.9889 156.117L93.2891 159.025L93.4447 158.98L92.1445 156.072L91.9889 156.117ZM93.0169 155.817L94.3171 158.725L94.4727 158.68L93.1725 155.772L93.0169 155.817ZM106.62 177.295L103.091 176.088L103.024 176.209L106.553 177.416L106.62 177.295ZM106.192 178.112L102.663 176.9L102.597 177.026L106.125 178.233L106.192 178.112ZM106.614 169.397L105.569 172.377L105.73 172.413L106.77 169.433L106.614 169.397ZM107.825 169.675L107.67 169.639L106.62 172.614L106.775 172.65L107.825 169.675ZM102.174 169.994L101.063 167.032L100.907 167.068L102.019 170.034L102.174 169.994ZM103.224 169.738L102.113 166.776L101.958 166.812L103.069 169.778L103.224 169.738ZM92.1111 161.987L90.2052 164.68L90.3497 164.743L92.2556 162.05L92.1111 161.987ZM91.1609 161.539L89.255 164.231L89.3995 164.294L91.3054 161.601L91.1609 161.539ZM82.2703 161.74L84.6986 164.137L84.8208 164.052L82.4092 161.664L82.2703 161.74ZM83.1149 161.18L85.5432 163.576L85.671 163.491L83.2816 161.103L83.1149 161.18ZM77.9972 162.526L79.2975 165.438L79.4531 165.394L78.1528 162.481L77.9972 162.526ZM79.0308 162.225L80.331 165.138L80.4811 165.093L79.1808 162.18L79.0308 162.225ZM105.508 164.59L105.669 164.622L106.608 161.624L106.453 161.588L105.508 164.59ZM107.675 161.839L107.514 161.808L106.57 164.806L106.731 164.837L107.675 161.839ZM101.441 164.357L97.9123 163.15L97.8456 163.271L101.374 164.483L101.441 164.357ZM101.869 163.545L98.3402 162.337L98.2735 162.459L101.802 163.666L101.869 163.545ZM89.644 176.321L90.7553 179.283L90.9109 179.247L89.7996 176.281L89.644 176.321ZM99.0347 177.098V176.968L95.2395 177.416V177.547L99.0347 177.098ZM99.1848 177.973V177.843L95.3896 178.292V178.422L99.1848 177.973ZM98.3179 174.679L99.1736 171.663L99.0125 171.632L98.1623 174.652L98.3179 174.679ZM99.3848 174.876L100.241 171.861L100.085 171.829L99.2292 174.849L99.3848 174.876ZM88.6827 170.317L87.2379 172.161L87.2991 172.332L88.8383 170.371L88.6827 170.317ZM89.6106 170.788L87.6547 173.283L87.7158 173.449L89.7496 170.86L89.6106 170.788ZM86.1211 167.727L86.1877 167.848L89.6995 166.61L89.6329 166.489L86.1211 167.727ZM90.1385 167.422L90.0718 167.301L86.56 168.54L86.6212 168.661L90.1385 167.422ZM83.3872 166.076L83.226 166.035L82.1703 168.993L82.3259 169.029L83.3872 166.076ZM81.2868 168.813L82.3314 165.833L82.1758 165.797L81.1312 168.777L81.2868 168.813ZM96.3286 167.498L95.2173 164.536L95.0617 164.572L96.173 167.539L96.3286 167.498ZM94.0171 164.806L95.1284 167.768L95.284 167.732L94.1727 164.77L94.0171 164.806ZM88.6882 157.176L85.6321 159.043L85.7321 159.147L88.7883 157.284L88.6882 157.176ZM86.2878 159.748L86.3878 159.856L89.4495 157.989L89.3495 157.885L86.2878 159.748ZM82.5259 154.363L83.5872 157.333L83.7484 157.298L82.6815 154.322L82.5259 154.363ZM81.4757 154.605L82.537 157.58L82.6926 157.544L81.6146 154.605H81.4757ZM77.586 157.517H77.7527L77.975 154.425H77.8083L77.586 157.517ZM79.0641 154.488H78.903L78.6807 157.58H78.8418L79.0641 154.488ZM80.4088 177.237L78.0639 175.267L77.9472 175.357L80.2977 177.331L80.4088 177.237ZM77.2749 175.891L77.1693 176.025L79.5475 178.022L79.6587 177.928L77.2749 175.891ZM105.058 158.747L104.93 158.666L102.524 161.072L102.652 161.157L105.058 158.747ZM104.08 158.11L101.669 160.515L101.796 160.601L104.208 158.191L104.08 158.11ZM104.764 153.586H104.597L104.169 156.66H104.33L104.764 153.586ZM103.508 153.469L103.08 156.548H103.247L103.675 153.474L103.508 153.469ZM95.234 173.261L91.7055 172.054L91.6444 172.175L95.1728 173.382L95.234 173.261ZM95.6618 172.444L92.1334 171.237L92.0722 171.358L95.6007 172.565L95.6618 172.444ZM73.6575 157.226L73.5519 157.127L73.4241 157.217L73.1463 157.585L73.6575 157.226ZM75.5967 160.758L72.2072 161.83V161.969L75.6579 160.879L75.5967 160.758ZM75.2578 160.058L75.1967 159.932L72.2072 160.879V161.022L75.2578 160.058ZM74.2409 166.498L74.2798 166.367L72.2072 165.99V166.125L74.2409 166.498ZM74.4854 165.636L74.5188 165.506L72.2072 165.084V165.219L74.4854 165.636ZM74.2354 176.025L74.2798 175.9L72.2072 175.473V175.612L74.2354 176.025ZM72.2072 174.679L74.5076 175.155L74.5465 175.024L72.2072 174.544V174.679ZM74.7744 178.687L74.7244 178.561L72.2072 179.23V179.373L74.7744 178.687ZM74.4298 177.847L74.3798 177.722L72.2072 178.301V178.44L74.4298 177.847ZM106.064 151.908L106.208 151.97L107.392 150.301H107.175L106.064 151.908ZM107.014 152.356L107.159 152.419L108.653 150.31H108.464L107.014 152.356ZM102.635 151.459L101.463 150.301H101.252L102.508 151.54L102.635 151.459ZM103.352 150.983L103.48 150.898L102.88 150.301H102.663L103.352 150.983ZM98.0845 153.012L96.8732 150.319H96.7009L97.929 153.074L98.0845 153.012ZM98.9625 152.756L99.1181 152.711L98.0401 150.301H97.8623L98.9625 152.756ZM91.0165 151.764L91.1776 151.795L91.6444 150.301H91.4777L91.0165 151.764ZM92.0778 151.984L92.2334 152.015L92.789 150.301H92.6168L92.0778 151.984ZM79.2197 151.508L79.3808 151.544L79.8142 150.301H79.642L79.2197 151.508ZM80.9534 150.301H80.7811L80.2754 151.746L80.431 151.786L80.9534 150.301ZM110.065 184.7L111.632 185.382V185.23L110.142 184.584L110.065 184.7ZM110.665 183.803L110.587 183.919L111.632 184.368V184.22L110.665 183.803ZM111.621 190.063V189.888L110.065 190.974L110.176 191.073L111.621 190.063ZM111.621 188.896V188.721L109.353 190.306L109.459 190.404L111.621 188.896ZM111.443 193.707L111.504 193.833L111.621 193.797V193.653L111.443 193.707ZM111.043 192.886L111.104 193.012L111.621 192.846V192.702L111.043 192.886ZM109.931 197.513L109.898 197.643L111.598 197.953V197.814L109.931 197.513ZM111.598 196.907L110.176 196.647L110.137 196.777L111.598 197.046V196.907ZM96.2675 186.392L98.6958 188.789L98.8236 188.703L96.3953 186.311L96.2675 186.392ZM97.9734 189.264L95.5452 186.872L95.4229 186.953L97.8456 189.35L97.9734 189.264ZM93.4281 190.835L92.3167 188.331L92.2389 188.551L93.278 190.88L93.4281 190.835ZM94.456 190.534L93.1558 187.622L93.0002 187.667L94.3005 190.579L94.456 190.534ZM92.2334 193.905L92.0889 193.837L90.183 196.53L90.3274 196.597L92.2334 193.905ZM91.122 193.402L89.9496 195.099L89.7662 195.624L91.3054 193.451L91.122 193.402ZM106.575 193.474L106.42 193.442L105.475 196.44L105.636 196.472L106.575 193.474ZM107.642 193.689L107.481 193.658L106.536 196.66L106.697 196.692L107.642 193.689ZM101.441 196.22L97.9123 195.013L97.8456 195.134L101.374 196.342L101.441 196.22ZM101.869 195.404L98.3402 194.196L98.2735 194.318L101.802 195.529L101.869 195.404ZM95.0673 196.431L95.7674 198.307H95.9397L95.2229 196.391L95.0673 196.431ZM94.1782 196.647L94.0171 196.683L94.6227 198.307H94.795L94.1782 196.647ZM105.064 190.633L104.936 190.548L102.53 192.953L102.658 193.039L105.064 190.633ZM104.086 189.991L101.674 192.397L101.802 192.482L104.214 190.077L104.086 189.991ZM104.764 185.432H104.597L104.169 188.506H104.33L104.764 185.432ZM103.508 185.32L103.08 188.394H103.247L103.675 185.315L103.508 185.32ZM106.203 183.834L107.386 182.165H107.175L106.064 183.767L106.203 183.834ZM108.459 182.165L107.009 184.207L107.153 184.274L108.648 182.165H108.459ZM102.502 183.403L102.63 183.318L101.457 182.165H101.246L102.502 183.403ZM103.347 182.842L103.474 182.757L102.874 182.165H102.658L103.347 182.842ZM98.079 184.871L96.8676 182.178H96.6954L97.9234 184.929L98.079 184.871ZM98.9569 184.619L99.1125 184.57L98.0345 182.165H97.8567L98.9569 184.619ZM91.2332 182.91L91.3276 183.156L91.6388 182.165H91.4721L91.2332 182.91ZM92.0722 183.843L92.2278 183.874L92.7835 182.165H92.6112L92.0722 183.843ZM72.0294 161.893L72.0905 162.019L72.2072 161.978V161.839L72.0294 161.893ZM72.2072 160.888L71.6515 161.072L71.7126 161.193L72.2294 161.031L72.2072 160.888ZM70.5013 165.824L72.2072 166.134V165.999L70.5402 165.694L70.5013 165.824ZM70.7458 164.963L72.2072 165.228V165.093L70.7791 164.806L70.7458 164.963ZM72.2072 175.482L70.5402 175.146L70.5013 175.276L72.1683 175.621L72.2072 175.482ZM70.8347 174.288L70.7958 174.419L72.2072 174.706V174.571L70.8347 174.288ZM72.2072 179.4V179.256L71.0959 179.557L71.1459 179.683L72.2072 179.4ZM72.2072 178.467V178.327L70.7402 178.718L70.7902 178.844L72.2072 178.467ZM68.6843 181.159L68.5453 181.096L67.7785 182.178H67.9675L68.6843 181.159ZM69.6345 181.608L69.4955 181.541L69.0399 182.187H69.2288L69.6345 181.608ZM60.6549 181.029L61.8218 182.187H62.0385L60.7827 180.944L60.6549 181.029ZM61.4995 180.468L63.2387 182.187H63.4499L61.6273 180.392L61.4995 180.468ZM58.3878 181.684L58.2322 181.729L58.4378 182.178H58.6156L58.3878 181.684ZM55.9984 155.161L56.5541 155.736L55.9984 155.139V155.161ZM52.5477 156.162L53.8535 159.07L54.0036 159.025L52.72 156.072L52.5477 156.162ZM53.5813 155.861L54.8815 158.77L55.0371 158.725L53.7369 155.817L53.5813 155.861ZM67.1673 177.295L63.6388 176.088L63.5777 176.209L67.1062 177.416L67.1673 177.295ZM66.7394 178.112L63.2165 176.9L63.1498 177.026L66.6783 178.233L66.7394 178.112ZM67.1673 169.397L66.1226 172.377L66.2782 172.413L67.3229 169.433L67.1673 169.397ZM68.3786 169.675L68.2175 169.639L67.1784 172.614L67.334 172.65L68.3786 169.675ZM62.7275 169.994L61.6162 167.032L61.4606 167.068L62.5719 170.034L62.7275 169.994ZM63.7722 169.738L62.6608 166.776L62.5053 166.812L63.6166 169.778L63.7722 169.738ZM52.8144 162.055L52.6755 161.987L50.7696 164.68L50.9141 164.743L52.8144 162.055ZM51.8643 161.606L51.7253 161.539L49.8194 164.231L49.9639 164.294L51.8643 161.606ZM62.0163 164.357L58.4878 163.15L58.4267 163.271L61.9551 164.483L62.0163 164.357ZM62.4441 163.545L58.9157 162.337L58.8545 162.459L62.383 163.666L62.4441 163.545ZM55.8095 177.529L59.6047 177.08V176.95L55.8095 177.399V177.529ZM55.9651 178.404L59.7603 177.955V177.825L55.9651 178.274V178.404ZM58.7434 174.634L58.9045 174.661L59.7603 171.645L59.5991 171.614L58.7434 174.634ZM60.666 171.811L59.8103 174.831L59.9714 174.858L60.8271 171.843L60.666 171.811ZM50.2195 166.471L48.7581 166.987L48.8137 167.112L50.2862 166.592L50.2195 166.471ZM50.6529 167.283L49.1137 167.826L49.1693 167.952L50.7196 167.404L50.6529 167.283ZM55.6539 164.59L56.7652 167.557L56.9264 167.516L55.815 164.554L55.6539 164.59ZM54.6037 164.846L55.715 167.808L55.8762 167.772L54.7648 164.81L54.6037 164.846ZM46.2131 159.106L46.3132 159.209L49.3749 157.347L49.2749 157.239L46.2131 159.106ZM50.0361 158.052L49.9361 157.948L46.8744 159.811L46.9744 159.918L50.0361 158.052ZM55.8206 173.27L52.2921 172.062L52.2254 172.184L55.7539 173.391L55.8206 173.27ZM52.6533 171.367L56.1818 172.574L56.2485 172.453L52.72 171.223L52.6533 171.367ZM70.7236 184.606L70.6458 184.723L70.7847 184.633L70.7236 184.606ZM71.2403 183.83L71.1625 183.946L71.5682 184.121L71.7015 184.027L71.2403 183.83ZM64.9446 187.07H65.1113L65.3392 185.409H65.178L64.9446 187.07ZM63.8333 186.917L63.9944 186.958L64.2223 185.311H64.0611L63.8333 186.917ZM67.9397 182.142H67.7507L66.6394 183.744L66.7783 183.812L67.9397 182.142ZM69.201 182.142H69.0121L67.5618 184.184L67.7063 184.251L69.201 182.142ZM63.0554 183.381L63.1776 183.296L62.0107 182.142H61.794L63.0554 183.381ZM63.9 182.82L64.0278 182.735L63.4221 182.142H63.211L63.9 182.82ZM58.41 182.142L59.2046 183.937L59.5102 184.224L58.5878 182.16L58.41 182.142Z" fill="white"/>
<path d="M104.486 134.737C104.486 134.737 95.4618 133.723 91.2943 135.9C87.1268 138.076 66.5338 166.502 66.5338 166.502L55.1593 154.138L45.2963 157.715C45.2963 157.715 49.9194 172.166 55.2983 179.355C60.6771 186.545 63.7444 187.272 65.5892 187.034C71.0792 186.329 86.9823 171.47 86.9823 171.47L92.7612 186.998L88.8382 198.285H161.908L153.045 186.347C153.045 186.347 164.609 143.264 161.664 138.7C158.719 134.136 141.56 134.737 136.164 134.737H120.717C118.376 135.112 115.996 135.311 113.61 135.33C110.558 135.258 107.513 135.06 104.486 134.737Z" stroke="#24295C" stroke-width="0.985332"/>
<path d="M86.9879 171.47C84.8725 168.056 84.051 164.215 84.6263 160.426C85.6988 154.38 90.333 147.761 90.333 147.761C90.333 147.761 81.0867 158.532 81.0867 162.122C81.0867 165.712 83.8373 170.963 83.8373 170.963L81.4368 176.496L86.9879 171.47Z" fill="#24295C" stroke="#24295C" stroke-width="0.985332" stroke-linecap="round" stroke-linejoin="round"/>
<path d="M112.137 128.782L112.382 135.119L105.764 135.316C105.764 135.316 104.397 158.568 110.287 162.728C116.177 166.888 133.958 134.737 133.958 134.737L127.846 133.745L125.884 120.874L112.137 128.782Z" fill="#F2E4E4" stroke="#24295C" stroke-width="0.985332" stroke-linecap="round" stroke-linejoin="round"/>
<path d="M126.59 123.388L112.437 134.158V130.348L126.59 123.388Z" fill="#263238" stroke="#24295C" stroke-width="0.985332" stroke-linecap="round" stroke-linejoin="round"/>
<path d="M110.287 162.728C110.287 162.728 110.998 158.985 114.56 154.093L110.287 162.728Z" fill="white"/>
<path d="M110.287 162.728C110.287 162.728 110.998 158.985 114.56 154.093" stroke="#263238" stroke-width="0.985332" stroke-linecap="round" stroke-linejoin="round"/>
<path d="M109.287 93.0499L93.1725 106.581C94.4385 109.46 95.0521 112.501 94.984 115.556C94.795 120.349 100.191 127.4 104.603 130.676C109.015 133.952 118.016 128.917 121.378 127.139C123.623 125.911 125.717 124.51 127.629 122.957C128.855 122.914 130.048 122.62 131.096 122.104C132.143 121.588 133.012 120.865 133.619 120.004C133.619 120.004 110.204 99.7951 109.287 93.0499Z" fill="#F2E4E4" stroke="#24295C" stroke-width="0.985332" stroke-linecap="round" stroke-linejoin="round"/>
<path d="M104.919 106.944C105.476 107.861 105.837 108.847 105.986 109.861C106.036 111.113 103.319 116.979 103.708 117.369C104.097 117.76 105.314 119.052 106.264 118.886" stroke="#24295C" stroke-width="0.985332" stroke-linecap="round" stroke-linejoin="round"/>
<path d="M111.621 113.357C113.891 112.67 116.388 112.646 118.678 113.29" stroke="#24295C" stroke-width="0.492666" stroke-linecap="round" stroke-linejoin="round"/>
<path d="M99.0792 113.824C100.293 113.549 101.547 113.407 102.808 113.402" stroke="#24295C" stroke-width="0.492666" stroke-linecap="round" stroke-linejoin="round"/>
<path d="M101.841 103.169C101.521 103.213 101.207 103.285 100.904 103.385C100.264 103.595 99.6846 103.924 99.2143 104.353L99.2143 104.353L99.211 104.357C98.8514 104.691 98.539 105.014 98.2744 105.287C98.0026 105.568 97.7952 105.782 97.624 105.928C97.608 105.942 97.5929 105.954 97.5787 105.966C97.5746 105.886 97.5898 105.77 97.6484 105.607C97.7324 105.374 97.8837 105.109 98.0756 104.841C98.4679 104.293 98.9492 103.844 99.1481 103.721C99.3982 103.565 100.113 103.185 100.84 103.074C101.199 103.019 101.521 103.037 101.781 103.143C101.801 103.151 101.821 103.16 101.841 103.169ZM97.6349 106.14C97.6349 106.14 97.6336 106.139 97.6313 106.135C97.6338 106.138 97.635 106.14 97.6349 106.14Z" fill="#263238" stroke="#24295C"/>
<path d="M114.69 103.314L114.683 103.311L114.677 103.308C113.623 102.879 112.496 102.594 111.338 102.461C111.397 102.452 111.458 102.445 111.52 102.439C112.315 102.362 113.261 102.478 113.932 102.724C114.239 102.836 114.529 103.022 114.762 103.229C114.838 103.296 114.903 103.361 114.959 103.423C114.88 103.394 114.79 103.358 114.69 103.314ZM115.204 103.799C115.204 103.799 115.204 103.798 115.204 103.796L115.204 103.799Z" fill="#263238" stroke="#24295C"/>
<path d="M134.453 125.38C134.553 126.726 133.692 127.848 132.541 127.902C131.391 127.956 130.374 126.915 130.274 125.578C130.174 124.24 130.869 120.789 132.019 120.735C133.169 120.681 134.358 124.038 134.453 125.38Z" fill="#D56B6B" stroke="#24295C" stroke-width="0.985332" stroke-linecap="round" stroke-linejoin="round"/>
<path d="M101.725 111.43L101.725 111.437L101.726 111.444C101.758 111.809 101.684 112.11 101.573 112.305C101.461 112.501 101.34 112.553 101.259 112.557C101.177 112.562 101.042 112.52 100.89 112.324C100.74 112.131 100.615 111.831 100.576 111.468C100.539 111.121 100.61 110.823 100.724 110.625C100.839 110.424 100.966 110.369 101.045 110.365C101.127 110.361 101.275 110.407 101.433 110.608C101.586 110.802 101.706 111.094 101.725 111.43Z" fill="#24295C" stroke="#24295C"/>
<path d="M113.717 111.096L113.717 111.096L113.717 111.098C113.749 111.463 113.676 111.763 113.564 111.959C113.453 112.154 113.332 112.207 113.252 112.212C113.177 112.216 113.043 112.179 112.888 111.979C112.736 111.784 112.609 111.481 112.567 111.115C112.528 110.768 112.6 110.473 112.714 110.278C112.83 110.079 112.957 110.024 113.036 110.019C113.117 110.015 113.258 110.058 113.414 110.255C113.565 110.448 113.688 110.743 113.717 111.096Z" fill="#24295C" stroke="#24295C"/>
<path d="M106.186 121.44C106.186 121.44 109.014 122.171 112.854 119.519" stroke="#24295C" stroke-width="0.985332" stroke-linecap="round" stroke-linejoin="round"/>
<path d="M55.1593 154.147L49.9861 148.551C49.7472 147.061 49.286 143.982 49.2082 141.904C49.1026 139.077 49.2748 137.349 47.2856 134.841C45.2963 132.332 39.7452 128.369 39.2229 127.449C38.7005 126.529 37.1891 129.123 38.1393 130.806C39.0895 132.489 39.9563 133.005 39.9563 133.005C39.9563 133.005 29.7376 128.903 29.3987 129.572C29.0597 130.24 34.1552 142.066 36.489 145.185C37.4614 146.486 40.1564 148.228 41.4566 149.736C42.0926 150.48 42.6378 151.272 43.0847 152.101C44.2961 156.261 45.7075 160.838 46.4187 161.005C48.0357 161.386 54.8982 161.476 55.1593 154.147Z" fill="#F2E4E4" stroke="#24295C" stroke-width="0.985332" stroke-miterlimit="10"/>
<path d="M40.6342 141.289C40.5408 141.31 40.4434 141.315 40.3475 141.305C40.2516 141.294 40.1591 141.269 40.0754 141.23C39.9918 141.191 39.9185 141.138 39.8599 141.076C39.8014 141.014 39.7586 140.943 39.734 140.868L31.6047 116.593C31.5612 116.446 31.5887 116.291 31.6817 116.161C31.7746 116.03 31.9259 115.932 32.1048 115.888C32.2926 115.848 32.4924 115.87 32.6608 115.948C32.8293 116.026 32.9529 116.155 33.0049 116.306L41.1565 140.571C41.2025 140.722 41.1736 140.882 41.0761 141.016C40.9785 141.15 40.82 141.248 40.6342 141.289Z" fill="#24295C" stroke="#24295C" stroke-width="0.985332" stroke-miterlimit="10"/>
<path d="M34.772 125.847C34.772 125.847 26.926 129.195 27.4094 129.85C27.8928 130.505 29.3264 132.843 29.9821 132.79C30.6378 132.736 35.3999 129.594 35.7444 129.199C36.0889 128.804 34.772 125.847 34.772 125.847Z" fill="#F2E4E4" stroke="#24295C" stroke-width="0.985332" stroke-miterlimit="10"/>
<path d="M36.1723 129.958C36.1723 129.958 29.6543 133.84 29.8655 134.405C30.0766 134.971 33.2717 141.662 33.8274 142.205C34.3831 142.748 39.4841 140.859 39.4841 140.859L36.1723 129.958Z" fill="#F2E4E4" stroke="#24295C" stroke-width="0.985332" stroke-miterlimit="10"/>
<path d="M37.1613 133.566C37.1613 133.566 30.9212 137.524 31.3324 137.65" stroke="#24295C" stroke-width="0.985332" stroke-miterlimit="10"/>
<path d="M38.3394 137.856L33.0939 140.338" stroke="#24295C" stroke-width="0.985332" stroke-miterlimit="10"/>
<path d="M39.9396 133.005L42.818 135.276C42.818 135.276 38.995 141.868 42.6568 145.508" stroke="#24295C" stroke-width="0.985332" stroke-miterlimit="10"/>
<path d="M153.512 136.142C153.512 136.142 160.497 135.406 163.514 140.069C166.531 144.732 185.385 185.943 185.691 189.884C185.996 193.824 173.233 194.789 168.982 193.074C164.731 191.36 152.868 170.994 151.667 168.293" fill="#D56B6B"/>
<path d="M155.733 164.679L154.697 167.652L154.858 167.688L155.893 164.716L155.733 164.679Z" fill="white"/>
<path d="M158.146 156.297L157.085 153.321L156.924 153.362L157.991 156.333L158.146 156.297Z" fill="white"/>
<path d="M157.627 164.974L156.58 167.953L156.741 167.99L157.787 165.011L157.627 164.974Z" fill="white"/>
<path d="M159.236 163.024L156.807 160.628L156.68 160.713L159.108 163.105L159.236 163.024Z" fill="white"/>
<path d="M164.476 166.235L160.962 167.473L161.029 167.596L164.543 166.358L164.476 166.235Z" fill="white"/>
<path d="M164.148 169.805L164.009 169.733L161.958 172.35L162.097 172.422L164.148 169.805Z" fill="white"/>
<path d="M155.874 153.604L156.935 156.58L157.096 156.539L156.029 153.568L155.874 153.604Z" fill="white"/>
<path d="M161.03 171.874L161.169 171.946L163.22 169.334L163.081 169.262L161.03 171.874Z" fill="white"/>
<path d="M160.08 162.463L157.657 160.067L157.53 160.152L159.952 162.544L160.08 162.463Z" fill="white"/>
<path d="M163.755 156.877L160.69 158.738L160.79 158.845L163.855 156.985L163.755 156.877Z" fill="white"/>
<path d="M162.986 143.699L164.092 146.666L164.248 146.626L163.147 143.664L162.986 143.699Z" fill="white"/>
<path d="M163.192 156.288L163.092 156.18L160.03 158.043L160.13 158.15L163.192 156.288Z" fill="white"/>
<path d="M161.169 140.123L162.32 138.655C162.281 138.624 162.247 138.588 162.208 138.552L161.03 140.051L161.169 140.123Z" fill="white"/>
<path d="M157.807 145.71L157.941 145.791L160.269 143.331L160.141 143.251L157.807 145.71Z" fill="white"/>
<path d="M159.897 149.745L163.425 150.952L163.492 150.831L159.963 149.623L159.897 149.745Z" fill="white"/>
<path d="M164.036 143.444L165.142 146.41L165.298 146.37L164.198 143.408L164.036 143.444Z" fill="white"/>
<path d="M163.803 163.262L165.709 160.574L165.565 160.511L163.664 163.195L163.803 163.262Z" fill="white"/>
<path d="M159.54 150.449L159.477 150.569L163.007 151.778L163.07 151.658L159.54 150.449Z" fill="white"/>
<path d="M164.029 165.442L160.514 166.68L160.581 166.803L164.095 165.565L164.029 165.442Z" fill="white"/>
<path d="M172.744 193.137L172.683 193.259L174.455 193.869H174.889L172.744 193.137Z" fill="white"/>
<path d="M173.511 183.511L172.433 181.101L172.21 180.603L172.055 180.648L172.26 181.101L173.355 183.556L173.511 183.511Z" fill="white"/>
<path d="M169.821 185.916L172.249 188.313L172.371 188.228L169.949 185.831L169.821 185.916Z" fill="white"/>
<path d="M172.477 183.812L171.271 181.101L171.177 180.904L171.027 180.944L171.093 181.101L172.327 183.857L172.477 183.812Z" fill="white"/>
<path d="M173.555 176.806L169.76 177.237L169.782 177.367L173.577 176.936L173.555 176.806Z" fill="white"/>
<path d="M184.58 190.036L185.607 189.318L185.574 189.17L184.463 189.937L184.58 190.036Z" fill="white"/>
<path d="M156.941 145.171L157.068 145.252L159.402 142.793L159.269 142.712L156.941 145.171Z" fill="white"/>
<path d="M152.567 161.447L152.41 161.493L153.712 164.405L153.868 164.359L152.567 161.447Z" fill="white"/>
<path d="M183.857 189.368L185.324 188.344C185.306 188.297 185.291 188.249 185.28 188.201L183.752 189.269L183.857 189.368Z" fill="white"/>
<path d="M173.222 187.667L170.793 185.275L170.666 185.355L173.094 187.752L173.222 187.667Z" fill="white"/>
<path d="M153.317 153.489L153.095 156.58L153.261 156.588L153.484 153.497L153.317 153.489Z" fill="white"/>
<path d="M170.727 166.457L169.627 163.495L169.465 163.531L170.571 166.498L170.727 166.457Z" fill="white"/>
<path d="M167.556 154.726L167.404 154.77L168.706 157.683L168.857 157.639L167.556 154.726Z" fill="white"/>
<path d="M166.998 149.264L166.47 150.947L166.631 150.979L167.17 149.264L167.576 147.976L167.415 147.945L166.998 149.264Z" fill="white"/>
<path d="M165.87 149.264L165.409 150.727L165.57 150.759L166.037 149.264L166.515 147.761L166.354 147.73L165.87 149.264Z" fill="white"/>
<path d="M168.415 163.787L169.521 166.749L169.677 166.713L168.576 163.747L168.415 163.787Z" fill="white"/>
<path d="M166.517 155.039L166.365 155.084L167.667 157.996L167.819 157.952L166.517 155.039Z" fill="white"/>
<path d="M153.604 161.138L153.447 161.184L154.748 164.097L154.905 164.051L153.604 161.138Z" fill="white"/>
<path d="M162.097 140.571L163.031 139.382L162.931 139.257L161.958 140.504L162.097 140.571Z" fill="white"/>
<path d="M166.47 170.308L169.999 171.515L170.06 171.394L166.531 170.187L166.47 170.308Z" fill="white"/>
<path d="M156.774 138.301L156.63 138.233L154.724 140.917L154.868 140.984L156.774 138.301Z" fill="white"/>
<path d="M182.746 181.545L182.674 181.379L181.423 183.147L181.562 183.21L182.746 181.545Z" fill="white"/>
<path d="M179.162 184.373L179.001 184.359L178.567 187.433L178.734 187.447L179.162 184.373Z" fill="white"/>
<path d="M177.063 175.878L177 175.998L180.529 177.208L180.592 177.088L177.063 175.878Z" fill="white"/>
<path d="M181.785 181.101L182.268 180.423L182.201 180.253L181.596 181.101L180.456 182.708L180.601 182.77L181.785 181.101Z" fill="white"/>
<path d="M179.467 189.574L179.34 189.489L176.928 191.894L177.056 191.98L179.467 189.574Z" fill="white"/>
<path d="M180.418 176.057L177.484 175.051L177.423 175.173L180.49 176.223L180.418 176.057Z" fill="white"/>
<path d="M178.612 189.018L178.484 188.932L176.078 191.338L176.206 191.423L178.612 189.018Z" fill="white"/>
<path d="M174.644 170.806L174.483 170.775L173.627 173.79L173.788 173.822L174.644 170.806Z" fill="white"/>
<path d="M176.9 182.344L177.028 182.259L175.856 181.101L174.6 179.862L174.472 179.948L175.644 181.101L176.9 182.344Z" fill="white"/>
<path d="M155.674 141.357L155.818 141.424L157.724 138.736L157.58 138.673L155.674 141.357Z" fill="white"/>
<path d="M166.516 186.874L166.364 186.918L167.666 189.831L167.818 189.786L166.516 186.874Z" fill="white"/>
<path d="M181.023 192.424L180.862 192.388L180.568 193.321L180.751 193.281L181.023 192.424Z" fill="white"/>
<path d="M167.56 186.562L167.408 186.607L168.709 189.519L168.861 189.475L167.56 186.562Z" fill="white"/>
<path d="M172.677 161.422L174.144 161.924C174.144 161.866 174.089 161.808 174.066 161.754L172.738 161.305L172.677 161.422Z" fill="white"/>
<path d="M182.085 192.63L181.923 192.599L181.79 193.016L181.979 192.962L182.085 192.63Z" fill="white"/>
<path d="M163.064 183.484L160.152 182.488L160.275 182.672L162.997 183.605L163.064 183.484Z" fill="white"/>
<path d="M153.112 143.156L155.007 144.75L155.129 144.66L153.123 142.977L153.112 143.156Z" fill="white"/>
<path d="M169.821 154.08L171.121 155.359L170.938 154.973L169.965 153.995L169.821 154.08Z" fill="white"/>
<path d="M154.218 145.364L154.335 145.27L153.057 144.193L153.045 144.377L154.218 145.364Z" fill="white"/>
<path d="M175.305 166.031L176.411 168.997L176.567 168.957L175.467 165.995L175.305 166.031Z" fill="white"/>
<path d="M163.492 182.672L159.963 181.46L159.897 181.581L163.425 182.793L163.492 182.672Z" fill="white"/>
<path d="M159.402 174.634L159.269 174.553L156.941 177.008L157.068 177.089L159.402 174.634Z" fill="white"/>
<path d="M165.298 178.211L164.198 175.244L164.036 175.285L165.142 178.247L165.298 178.211Z" fill="white"/>
<path d="M164.248 178.467L163.147 175.5L162.986 175.541L164.092 178.503L164.248 178.467Z" fill="white"/>
<path d="M160.269 175.168L160.141 175.092L157.807 177.547L157.941 177.627L160.269 175.168Z" fill="white"/>
<path d="M154.668 150.709L154.829 150.745L155.346 149.264L155.868 147.77L155.713 147.73L155.174 149.264L154.668 150.709Z" fill="white"/>
<path d="M154.035 149.264L153.612 150.472L153.773 150.507L154.207 149.264L154.812 147.527L154.657 147.492L154.035 149.264Z" fill="white"/>
<path d="M156.774 170.137L156.63 170.07L154.724 172.758L154.868 172.821L156.774 170.137Z" fill="white"/>
<path d="M157.724 170.577L157.58 170.51L155.674 173.198L155.818 173.261L157.724 170.577Z" fill="white"/>
<path d="M166.52 160.951L164.614 163.634L164.753 163.702L166.659 161.013L166.52 160.951Z" fill="white"/>
<path d="M173.416 170.577L172.56 173.593L172.722 173.624L173.577 170.608L173.416 170.577Z" fill="white"/>
<path d="M174.583 162.889L172.31 162.113L172.249 162.234L174.661 163.06C174.633 163.011 174.611 162.948 174.583 162.889Z" fill="white"/>
<path d="M173.427 176.061L173.405 175.931L169.61 176.362L169.632 176.492L173.427 176.061Z" fill="white"/>
<path d="M175.45 179.301L175.322 179.387L177.061 181.101L177.75 181.783L177.878 181.698L177.272 181.101L175.45 179.301Z" fill="white"/>
<path d="M167.17 181.101L167.576 179.817L167.415 179.786L166.998 181.101L166.47 182.784L166.631 182.815L167.17 181.101Z" fill="white"/>
<path d="M166.107 171.014L166.044 171.134L169.573 172.343L169.636 172.224L166.107 171.014Z" fill="white"/>
<path d="M166.037 181.101L166.515 179.598L166.354 179.566L165.87 181.101L165.409 182.564L165.57 182.6L166.037 181.101Z" fill="white"/>
<path d="M177.645 187.348L178.073 184.274L177.911 184.26L177.478 187.335L177.645 187.348Z" fill="white"/>
<path d="M153.512 136.142C153.512 136.142 160.497 135.406 163.514 140.069C166.531 144.732 185.385 185.943 185.691 189.884C185.996 193.824 173.233 194.789 168.982 193.074C164.731 191.36 152.868 170.994 151.667 168.293" stroke="#24295C" stroke-width="0.985332"/>
<path d="M111.287 192.325C111.287 192.325 97.0121 190.853 94.5782 191.095C92.1444 191.338 81.2145 197.23 81.2145 197.23H112.176L111.287 192.325Z" fill="#F2E4E4" stroke="#24295C" stroke-width="0.985332" stroke-linecap="round" stroke-linejoin="round"/>
<path d="M170.216 184.471L111.315 192.325L112.176 197.23H184.802C185.367 194.803 185.671 192.34 185.713 189.87C185.713 186.19 182.979 182.021 182.979 182.021" fill="#D56B6B"/>
<path d="M175.094 192.572L176.2 195.534L176.356 195.498L175.255 192.532L175.094 192.572Z" fill="white"/>
<path d="M179.128 184.189L176.717 186.594L176.845 186.679L179.256 184.274L179.128 184.189Z" fill="white"/>
<path d="M175.867 186.038L175.994 186.123L178.401 183.717L178.273 183.632L175.867 186.038Z" fill="white"/>
<path d="M168.204 190.323L169.31 193.29L169.465 193.25L168.365 190.288L168.204 190.323Z" fill="white"/>
<path d="M177.406 195.242L176.3 192.276L176.144 192.316L177.25 195.278L177.406 195.242Z" fill="white"/>
<path d="M170.516 192.998L169.415 190.032L169.254 190.072L170.36 193.034L170.516 192.998Z" fill="white"/>
<path d="M180.655 187.09L179.711 190.091L179.873 190.124L180.816 187.123L180.655 187.09Z" fill="white"/>
<path d="M179.979 197.23H180.151L180.957 194.932L180.795 194.897L179.979 197.23Z" fill="white"/>
<path d="M166.32 196.723L166.259 196.844L167.382 197.23H167.804L166.32 196.723Z" fill="white"/>
<path d="M181.702 187.286L180.757 190.287L180.919 190.32L181.863 187.319L181.702 187.286Z" fill="white"/>
<path d="M153.387 187.674L153.231 187.72L154.532 190.633L154.689 190.587L153.387 187.674Z" fill="white"/>
<path d="M172.038 188.775L175.561 189.982L175.628 189.861L172.099 188.649L172.038 188.775Z" fill="white"/>
<path d="M173.205 197.118L173.172 197.23H173.338L173.366 197.145L173.205 197.118Z" fill="white"/>
<path d="M172.528 187.847L172.465 187.967L175.994 189.176L176.057 189.057L172.528 187.847Z" fill="white"/>
<path d="M156.468 187.249L158.897 189.646L159.024 189.561L156.596 187.164L156.468 187.249Z" fill="white"/>
<path d="M159.869 189L157.441 186.608L157.319 186.688L159.741 189.085L159.869 189Z" fill="white"/>
<path d="M183.652 184.067L183.99 183.83L183.924 183.699L183.546 183.969L183.652 184.067Z" fill="white"/>
<path d="M156.361 191.272L155.315 194.251L155.475 194.288L156.522 191.309L156.361 191.272Z" fill="white"/>
<path d="M184.357 190.44L185.696 190.687C185.696 190.642 185.696 190.597 185.696 190.552L184.385 190.31L184.357 190.44Z" fill="white"/>
<path d="M163.798 196.274L163.047 197.23H163.242L163.936 196.342L163.798 196.274Z" fill="white"/>
<path d="M185.657 191.45L184.152 191.176L184.113 191.302L185.646 191.585C185.652 191.54 185.657 191.495 185.657 191.45Z" fill="white"/>
<path d="M184.368 184.736L184.407 184.709L184.346 184.574L184.263 184.637L184.368 184.736Z" fill="white"/>
<path d="M163.816 191.975L160.301 193.213L160.368 193.336L163.882 192.099L163.816 191.975Z" fill="white"/>
<path d="M163.009 195.87L162.87 195.799L161.747 197.23H161.942L163.009 195.87Z" fill="white"/>
<path d="M157.427 191.537L156.381 194.516L156.541 194.553L157.588 191.574L157.427 191.537Z" fill="white"/>
<path d="M164.265 192.775L160.751 194.013L160.818 194.137L164.332 192.898L164.265 192.775Z" fill="white"/>
<path d="M166.448 187.554L166.309 187.487L164.403 190.175L164.542 190.243L166.448 187.554Z" fill="white"/>
<path d="M163.453 189.736L163.592 189.798L165.498 187.115L165.353 187.047L163.453 189.736Z" fill="white"/>
<path d="M124.399 191.978L120.884 193.215L120.951 193.339L124.465 192.101L124.399 191.978Z" fill="white"/>
<path d="M117.144 196.674L116.999 196.611L116.56 197.23H116.749L117.144 196.674Z" fill="white"/>
<path d="M116.055 194.291L117.011 191.562L116.833 191.585L115.899 194.255L116.055 194.291Z" fill="white"/>
<path d="M118.094 197.113L117.95 197.051L117.822 197.229H118.011L118.094 197.113Z" fill="white"/>
<path d="M136.57 189.165L136.637 189.044L136.426 188.977L136.125 189.013L136.57 189.165Z" fill="white"/>
<path d="M140.56 197.23H140.732L141.532 194.932L141.376 194.897L140.56 197.23Z" fill="white"/>
<path d="M141.999 188.232L141.349 190.305L141.504 190.341L142.177 188.21L141.999 188.232Z" fill="white"/>
<path d="M123.59 195.87L123.451 195.799L122.328 197.23H122.523L123.59 195.87Z" fill="white"/>
<path d="M124.518 196.342L124.379 196.274L123.623 197.23H123.817L124.518 196.342Z" fill="white"/>
<path d="M157.369 197.051L157.241 197.229H157.43L157.513 197.113L157.369 197.051Z" fill="white"/>
<path d="M181.851 195.139L181.118 197.23H181.29L182.007 195.175L181.851 195.139Z" fill="white"/>
<path d="M152.356 187.981L152.199 188.027L153.501 190.94L153.658 190.894L152.356 187.981Z" fill="white"/>
<path d="M142.427 195.139L141.699 197.23H141.865L142.588 195.175L142.427 195.139Z" fill="white"/>
<path d="M126.901 196.723L126.835 196.844L127.963 197.23H128.379L126.901 196.723Z" fill="white"/>
<path d="M156.563 196.674L156.418 196.611L155.979 197.23H156.168L156.563 196.674Z" fill="white"/>
<path d="M117.158 191.33L116.123 194.303L116.283 194.339L117.318 191.366L117.158 191.33Z" fill="white"/>
<path d="M148.767 193.582L148.611 193.532L147.211 196.413L147.361 196.463L148.767 193.582Z" fill="white"/>
<path d="M124.836 192.787L121.322 194.025L121.388 194.148L124.903 192.91L124.836 192.787Z" fill="white"/>
<path d="M149.784 193.9L149.628 193.855L148.228 196.737L148.383 196.781L149.784 193.9Z" fill="white"/>
<path d="M144.694 191.306L146.394 191.616L148.428 191.984L148.467 191.854L146.394 191.477L144.727 191.176L144.694 191.306Z" fill="white"/>
<path d="M148.672 191.122L148.711 190.992L146.394 190.57L144.972 190.31L144.933 190.44L146.394 190.705L148.672 191.122Z" fill="white"/>
<path d="M140.449 190.122L140.999 188.367L140.821 188.389L140.287 190.09L140.449 190.122Z" fill="white"/>
<path d="M136.209 189.861L134.408 189.242L134.108 189.282L136.142 189.982L136.209 189.861Z" fill="white"/>
<path d="M130.935 193.034L131.097 192.998L129.991 190.032L129.835 190.072L130.935 193.034Z" fill="white"/>
<path d="M130.046 193.25L128.941 190.288L128.785 190.323L129.891 193.29L130.046 193.25Z" fill="white"/>
<path d="M135.675 192.572L136.781 195.534L136.937 195.498L135.831 192.532L135.675 192.572Z" fill="white"/>
<path d="M133.78 197.118L133.747 197.23H133.919L133.942 197.145L133.78 197.118Z" fill="white"/>
<path d="M137.987 195.242L136.881 192.276L136.726 192.316L137.826 195.278L137.987 195.242Z" fill="white"/>
<path d="M170.216 184.471L111.315 192.325L112.176 197.23H184.802C185.367 194.803 185.671 192.34 185.713 189.87C185.713 186.19 182.979 182.021 182.979 182.021" stroke="#24295C" stroke-width="0.985332"/>
<path d="M183.168 196.436H109.954L107.553 163.908C107.488 163.591 107.509 163.267 107.614 162.957C107.72 162.647 107.908 162.36 108.165 162.115C108.422 161.87 108.742 161.673 109.102 161.538C109.463 161.402 109.856 161.332 110.254 161.332H182.857C183.255 161.332 183.648 161.401 184.009 161.536C184.371 161.671 184.691 161.868 184.948 162.113C185.205 162.359 185.393 162.646 185.498 162.956C185.604 163.266 185.624 163.591 185.557 163.908L183.168 196.436Z" fill="#263238" stroke="#263238" stroke-width="0.985332" stroke-linecap="round" stroke-linejoin="round"/>
<path d="M113.549 162.113H182.329C182.717 162.11 183.102 162.175 183.456 162.304C183.81 162.433 184.124 162.623 184.378 162.861C184.631 163.099 184.818 163.378 184.923 163.68C185.029 163.982 185.052 164.298 184.991 164.608" stroke="white" stroke-width="0.985332" stroke-linecap="round" stroke-linejoin="round"/>
<path d="M108.098 164.11C108.15 163.564 108.456 163.054 108.955 162.684C109.454 162.313 110.109 162.109 110.787 162.113" stroke="white" stroke-width="0.985332" stroke-linecap="round" stroke-linejoin="round"/>
<path d="M183.474 193.268H109.637V196.436H183.474V193.268Z" fill="white" stroke="#263238" stroke-width="0.985332" stroke-linecap="round" stroke-linejoin="round"/>
<path d="M151.529 179.014C151.529 180.414 149.184 181.55 146.294 181.55C143.405 181.55 141.065 180.414 141.065 179.014C141.065 177.614 143.41 176.479 146.294 176.479C149.178 176.479 151.529 177.614 151.529 179.014Z" fill="white" stroke="#263238" stroke-width="0.985332" stroke-linecap="round" stroke-linejoin="round"/>
<path d="M37.1279 193.169C35.5762 193.107 34.052 192.813 32.6326 192.303C32.2711 192.162 31.9907 191.914 31.85 191.611C31.7094 191.307 31.7194 190.972 31.8778 190.674C32.0363 190.376 32.3311 190.139 32.7006 190.013C33.07 189.887 33.4856 189.881 33.8606 189.996C35.2942 190.489 37.1335 190.795 37.628 190.624C38.5282 189.803 39.9229 184.844 38.1226 182.479C38.0281 182.312 37.8854 182.166 37.7065 182.052C37.5277 181.939 37.3179 181.862 37.0946 181.828C36.0722 181.716 34.5608 182.564 34.0273 182.968C33.7232 183.181 33.3282 183.291 32.9257 183.275C32.5232 183.258 32.1444 183.115 31.8693 182.877C31.5942 182.639 31.4441 182.325 31.4507 181.999C31.4573 181.674 31.6201 181.363 31.9047 181.132C32.1881 180.917 34.7664 179.046 37.5058 179.337C38.1858 179.419 38.8334 179.626 39.3989 179.942C39.9644 180.258 40.4326 180.674 40.7676 181.159C43.4181 184.642 41.6066 191.284 39.5673 192.585C38.8593 192.997 37.9994 193.203 37.1279 193.169Z" fill="#24295C" stroke="#24295C" stroke-width="0.985332" stroke-linecap="round" stroke-linejoin="round"/>
<path d="M34.3774 178.314H17.2351V196.692H34.3774V178.314Z" fill="#24295C" stroke="#24295C" stroke-width="0.985332" stroke-linecap="round" stroke-linejoin="round"/>
<path d="M18.791 177.309C18.791 177.309 18.791 175.778 22.2639 174.248C25.7368 172.718 27.6317 170.424 25.7368 166.089C23.842 161.754 24.1587 158.693 27.9595 156.14" stroke="#24295C" stroke-width="0.985332" stroke-linecap="round" stroke-linejoin="round"/>
<path d="M19.58 160.995C19.7578 159.133 20.7858 157.558 22.914 156.14" stroke="#24295C" stroke-width="0.985332" stroke-linecap="round" stroke-linejoin="round"/>
<path d="M20.6858 166.089C20.3389 165.316 20.0585 164.524 19.8467 163.72" stroke="#24295C" stroke-width="0.985332" stroke-linecap="round" stroke-linejoin="round"/>
<path d="M32.8937 167.584C32.7606 167.076 32.5843 166.577 32.3659 166.089L32.0769 165.398" stroke="#24295C" stroke-width="0.985332" stroke-linecap="round" stroke-linejoin="round"/>
<path d="M25.4201 177.309C25.4201 177.309 25.4201 175.778 28.893 174.248C31.1712 173.243 32.7827 171.91 33.0661 169.89" stroke="#24295C" stroke-width="0.985332" stroke-linecap="round" stroke-linejoin="round"/>
<path d="M1.87085 200.5V196.878H259.5V200.5H1.87085Z" fill="#24295C" stroke="#24295C"/>
</g>
<defs>
<clipPath id="clip0">
<rect width="18.1587" height="16.9231" fill="white" transform="translate(157.651 14.0769)"/>
</clipPath>
</defs>
</svg>
