<svg width="80" height="80" viewBox="0 0 80 80" fill="none" xmlns="http://www.w3.org/2000/svg">
<path d="M21.3333 32H26.6667V26.6667H21.3333V32ZM53.3333 32H58.6667V26.6667H53.3333V32ZM53.8667 46.4C52.2521 48.5527 50.1585 50.3 47.7517 51.5034C45.3449 52.7068 42.6909 53.3333 40 53.3333C37.3091 53.3333 34.6551 52.7068 32.2483 51.5034C29.8415 50.3 27.7479 48.5527 26.1333 46.4L21.8667 49.6C30.9333 61.6907 49.0667 61.6907 58.1333 49.6L53.8667 46.4ZM5.33333 26.6667V13.3333H0V26.6667H5.33333ZM13.3333 5.33333H26.6667V0H13.3333V5.33333ZM5.33333 13.3333C5.33333 11.2116 6.17619 9.17677 7.67648 7.67648C9.17677 6.17619 11.2116 5.33333 13.3333 5.33333V0C9.79711 0 6.40573 1.40476 3.90524 3.90524C1.40476 6.40573 0 9.79711 0 13.3333H5.33333ZM0 53.3333V66.6667H5.33333V53.3333H0ZM13.3333 80H26.6667V74.6667H13.3333V80ZM0 66.6667C0 70.2029 1.40476 73.5943 3.90524 76.0948C6.40573 78.5952 9.79711 80 13.3333 80V74.6667C11.2116 74.6667 9.17677 73.8238 7.67648 72.3235C6.17619 70.8232 5.33333 68.7884 5.33333 66.6667H0ZM53.3333 5.33333H66.6667V0H53.3333V5.33333ZM74.6667 13.3333V26.6667H80V13.3333H74.6667ZM66.6667 5.33333C68.7884 5.33333 70.8232 6.17619 72.3235 7.67648C73.8238 9.17677 74.6667 11.2116 74.6667 13.3333H80C80 9.79711 78.5952 6.40573 76.0948 3.90524C73.5943 1.40476 70.2029 0 66.6667 0V5.33333ZM53.3333 80H66.6667V74.6667H53.3333V80ZM80 66.6667V53.3333H74.6667V66.6667H80ZM66.6667 80C70.2029 80 73.5943 78.5952 76.0948 76.0948C78.5952 73.5943 80 70.2029 80 66.6667H74.6667C74.6667 68.7884 73.8238 70.8232 72.3235 72.3235C70.8232 73.8238 68.7884 74.6667 66.6667 74.6667V80Z" fill="#24295C"/>
</svg>
